<svg
   version="1.1"
   width="660"
   height="526"
   style="clip-rule:evenodd;fill-rule:evenodd;image-rendering:optimizeQuality;shape-rendering:geometricPrecision;text-rendering:geometricPrecision"
   viewBox='0 0 660 526'
   xmlns="http://www.w3.org/2000/svg"
   xmlnsSvg="http://www.w3.org/2000/svg">
  <defs
     id="defs878" />
  <g
     id="g4">
    <path
       style="opacity:1"
       fill="#1b1c1b"
       d="m 3.5,0.5 c 1.33333,0.66667 1.33333,0.66667 0,0 z"
       id="path2" />
  </g>
  <g
     id="g8">
    <path
       style="opacity:1"
       fill="#1d1e1d"
       d="m 7.5,25.5 c 1.33333,0.6667 1.33333,0.6667 0,0 z"
       id="path6" />
  </g>
  <g
     id="g12">
    <path
       style="opacity:1"
       fill="#ededed"
       d="m 246.5,281.5 c -0.667,0.667 -1.333,1.333 -2,2 -0.592,2.627 -0.925,5.294 -1,8 0,0.667 -0.333,1 -1,1 -0.31,-1.238 -0.81,-1.238 -1.5,0 -13.349,28.364 -28.015,56.031 -44,83 -8.753,13.174 -17.753,26.174 -27,39 -3.719,4.883 -7.885,9.216 -12.5,13 0.131,-0.739 -0.036,-1.406 -0.5,-2 -0.837,1.507 -2.004,2.007 -3.5,1.5 2.138,-1.422 3.305,-3.255 3.5,-5.5 -1.333,1.333 -2.667,2.667 -4,4 -0.333,-0.333 -0.667,-0.667 -1,-1 -1.117,1.449 -1.784,3.116 -2,5 -0.333,-0.667 -0.667,-1.333 -1,-2 -4.415,3.744 -8.082,8.078 -11,13 -0.333,-0.333 -0.667,-0.667 -1,-1 -1.093,2.472 -2.76,4.472 -5,6 -1.073,-0.78 -2.24,-0.613 -3.5,0.5 0.43,0.92 0.764,1.753 1,2.5 1.12,-1.333 2.453,-1.833 4,-1.5 -1.378,1.713 -3.045,3.047 -5,4 0.594,0.464 1.261,0.631 2,0.5 -22.871,17.277 -46.2048,17.943 -70,2 4.4732,-1.677 8.9732,-0.344 13.5,4 0.3742,-0.916 0.8742,-1.75 1.5,-2.5 -9.5453,-3.464 -17.7119,-9.298 -24.5,-17.5 -3.4447,-5.232 -6.6114,-10.565 -9.5,-16 -0.9687,0.809 -1.8021,1.809 -2.5,3 -0.3333,-0.667 -0.6667,-1.333 -1,-2 -0.3988,0.228 -0.5654,0.562 -0.5,1 -6.212,-15.254 -9.212,-31.254 -9,-48 3.6467,-63.256 19.4801,-123.256 47.5,-180 7.6014,-13.278 17.1014,-25.111 28.5,-35.5 31.392,-20.982 59.892,-17.482 85.5,10.5 10.664,12.661 19.831,26.328 27.5,41 0.283,0.789 0.783,1.456 1.5,2 4.634,-3.632 8.967,-7.632 13,-12 0.791,-1.245 1.291,-2.578 1.5,-4 35.594,-41.565 55.594,-89.899 60,-145 4.532,-0.4308 8.865,0.0692 13,1.5 -10.716,78.367 -30.716,154.2 -60,227.5 z m -102,-127 c 1.068,-0.934 2.401,-1.268 4,-1 3.354,0.247 6.354,1.247 9,3 -4.254,-1.146 -8.587,-1.813 -13,-2 z m -11,2 c 14.935,-1.743 27.935,2.423 39,12.5 15.115,14.444 27.115,31.111 36,50 -1.637,1.828 -3.303,3.661 -5,5.5 -14.053,9.362 -28.72,17.695 -44,25 -3.641,1.485 -7.308,2.985 -11,4.5 1.284,0.684 2.451,0.517 3.5,-0.5 0.333,0.667 0.667,1.333 1,2 1.622,-0.599 3.122,-1.266 4.5,-2 5.785,-2.06 11.452,-4.393 17,-7 -0.172,0.992 0.162,1.658 1,2 -11.795,6.375 -24.128,11.375 -37,15 11.103,-1.645 21.769,-4.811 32,-9.5 11.895,-6.105 23.228,-12.938 34,-20.5 2.729,-2.274 5.729,-3.774 9,-4.5 2.062,4.721 4.395,9.221 7,13.5 -1.169,-4.674 -2.836,-9.174 -5,-13.5 0.5,-0.5 1,-1 1.5,-1.5 6.81,13.958 12.81,28.292 18,43 0.334,2.347 0.167,4.681 -0.5,7 -0.838,0.342 -1.172,1.008 -1,2 -0.838,0.342 -1.172,1.008 -1,2 -1.431,1.28 -2.098,2.947 -2,5 -1.174,1.014 -1.84,2.347 -2,4 -0.904,0.709 -1.237,1.709 -1,3 -1.508,1.681 -2.508,3.681 -3,6 -0.838,0.342 -1.172,1.008 -1,2 -0.838,0.342 -1.172,1.008 -1,2 -2.125,2.588 -3.458,5.588 -4,9 -1.604,0.787 -2.271,2.12 -2,4 -1.604,0.787 -2.271,2.12 -2,4 -0.838,0.342 -1.172,1.008 -1,2 -1.604,0.787 -2.271,2.12 -2,4 -1.406,0.473 -2.073,1.473 -2,3 -1.174,1.014 -1.84,2.347 -2,4 -1.508,1.681 -2.508,3.681 -3,6 -1.75,1.159 -2.75,2.826 -3,5 -1.508,1.681 -2.508,3.681 -3,6 -1.406,0.473 -2.073,1.473 -2,3 -0.838,0.342 -1.172,1.008 -1,2 -1.406,0.473 -2.073,1.473 -2,3 -1.174,1.014 -1.84,2.347 -2,4 -0.667,0 -1,0.333 -1,1 -0.838,0.342 -1.172,1.008 -1,2 -1.406,0.473 -2.073,1.473 -2,3 -0.838,0.342 -1.172,1.008 -1,2 -1.406,0.473 -2.073,1.473 -2,3 -0.838,0.342 -1.172,1.008 -1,2 -0.667,0 -1,0.333 -1,1 -0.838,0.342 -1.172,1.008 -1,2 -0.667,0 -1,0.333 -1,1 -0.838,0.342 -1.172,1.008 -1,2 -0.667,0 -1,0.333 -1,1 -0.838,0.342 -1.172,1.008 -1,2 -0.667,0 -1,0.333 -1,1 -0.838,0.342 -1.172,1.008 -1,2 -0.667,0 -1,0.333 -1,1 -0.838,0.342 -1.172,1.008 -1,2 -0.667,0 -1,0.333 -1,1 -0.838,0.342 -1.172,1.008 -1,2 -0.667,0 -1,0.333 -1,1 -0.667,0 -1,0.333 -1,1 -0.838,0.342 -1.172,1.008 -1,2 -0.667,0 -1,0.333 -1,1 -0.901,0.79 -1.568,1.79 -2,3 -0.667,0 -1,0.333 -1,1 -0.901,0.79 -1.568,1.79 -2,3 -0.667,0 -1,0.333 -1,1 -0.667,0 -1,0.333 -1,1 -1.333,0.667 -1.333,1.333 0,2 -0.58,2.249 -1.913,3.915 -4,5 -0.578,-1.047 -1.244,-0.88 -2,0.5 0.228,0.399 0.562,0.565 1,0.5 -6,9.333 -13.667,17 -23,23 0.065,-0.438 -0.101,-0.772 -0.5,-1 -0.833,0.833 -1.667,1.667 -2.5,2.5 0.228,0.399 0.562,0.565 1,0.5 -0.762,1.762 -2.096,2.762 -4,3 -0.473,1.406 -1.473,2.073 -3,2 -0.342,0.838 -1.008,1.172 -2,1 -0.578,-1.047 -1.244,-0.88 -2,0.5 0.228,0.399 0.562,0.565 1,0.5 -0.342,0.838 -1.008,1.172 -2,1 -0.342,0.838 -1.008,1.172 -2,1 -0.342,0.838 -1.008,1.172 -2,1 -0.787,1.604 -2.12,2.271 -4,2 -4.83,2.874 -10.164,4.208 -16,4 -5.0517,0.233 -9.7184,-0.767 -14,-3 -2.2028,-0.104 -4.2028,-0.77 -6,-2 1.5311,-1.425 1.1977,-2.091 -1,-2 -0.721,-1.882 -1.721,-2.215 -3,-1 -1.5269,0.073 -2.5269,-0.594 -3,-2 1.047,-0.578 0.8803,-1.244 -0.5,-2 -0.3988,0.228 -0.5654,0.562 -0.5,1 -1.5269,0.073 -2.5269,-0.594 -3,-2 -1,-0.333 -1.6667,-1 -2,-2 0.4382,0.065 0.7716,-0.101 1,-0.5 -0.8333,-0.833 -1.6667,-1.667 -2.5,-2.5 -0.3988,0.228 -0.5654,0.562 -0.5,1 -2.0869,-1.085 -3.4202,-2.751 -4,-5 -1.4063,-0.473 -2.073,-1.473 -2,-3 -1.4063,-0.473 -2.073,-1.473 -2,-3 0.5431,-0.06 0.8764,-0.393 1,-1 -1.7743,-3.215 -3.2743,-6.548 -4.5,-10 -0.4828,0.948 -0.6495,1.948 -0.5,3 -2.3061,-3.585 -3.6394,-7.585 -4,-12 -0.9345,-1.068 -1.2678,-2.401 -1,-4 -1.9202,-5.042 -2.9202,-10.375 -3,-16 -1.1842,-14.421 -0.5175,-28.754 2,-43 0.6667,-5.667 1.3333,-11.333 2,-17 1.746,-8.398 3.746,-16.731 6,-25 0,-1 0,-2 0,-3 0.3333,0 0.6667,0 1,0 -0.2845,-1.915 0.0489,-3.581 1,-5 -0.2678,-1.599 0.0655,-2.932 1,-4 -0.2678,-1.599 0.0655,-2.932 1,-4 -0.2678,-1.599 0.0655,-2.932 1,-4 0,-1 0,-2 0,-3 0.7216,0.418 1.2216,1.084 1.5,2 0.7401,-1.249 0.5735,-2.249 -0.5,-3 -0.0875,-3.098 0.4125,-3.432 1.5,-1 0.7401,-1.249 0.5735,-2.249 -0.5,-3 -0.2373,-1.291 0.096,-2.291 1,-3 0,-1 0,-2 0,-3 0.3333,0 0.6667,0 1,0 0.1997,-3.13 0.8664,-6.13 2,-9 0,-0.667 0,-1.333 0,-2 1.6586,-5.133 3.9919,-9.966 7,-14.5 -0.4574,-0.414 -0.7907,-0.914 -1,-1.5 0.6667,-0.333 1.3333,-0.667 2,-1 -1.1527,-1.187 -1.1527,-2.187 0,-3 0.0774,-1.25 0.744,-2.083 2,-2.5 -0.4574,-0.414 -0.7907,-0.914 -1,-1.5 1.0771,-2.229 1.7437,-4.563 2,-7 1.7927,-1.926 2.7927,-4.259 3,-7 0.8382,-0.342 1.1716,-1.008 1,-2 1.7927,-1.926 2.7927,-4.259 3,-7 1.9774,-3.118 4.3107,-5.952 7,-8.5 0,-1 0,-2 0,-3 2.8388,-2.599 4.8388,-5.432 6,-8.5 1.4063,-0.473 2.073,-1.473 2,-3 3.3482,-3.351 6.3482,-7.018 9,-11 8.506,-9.863 18.839,-16.863 31,-21 z m 24,0 c 2.589,-0.039 4.589,0.961 6,3 -2.319,-0.492 -4.319,-1.492 -6,-3 z m -38,3 c -0.473,1.406 -1.473,2.073 -3,2 0.473,-1.406 1.473,-2.073 3,-2 z m 44,0 c 2.174,0.25 3.841,1.25 5,3 -2.174,-0.25 -3.841,-1.25 -5,-3 z m 5,3 c 1.904,0.238 3.238,1.238 4,3 -1.904,-0.238 -3.238,-1.238 -4,-3 z m 7,1 c 1.527,-0.073 2.527,0.594 3,2 -1.527,0.073 -2.527,-0.594 -3,-2 z m -2,3 c 5.24,3.733 10.074,8.066 14.5,13 8.843,11.685 16.676,24.018 23.5,37 -0.577,1.273 -1.243,1.273 -2,0 -9.069,-18.815 -21.069,-35.481 -36,-50 z m 97,2 c -2.511,11.044 -5.178,22.044 -8,33 -0.904,0.709 -1.237,1.709 -1,3 -1.424,2.015 -2.09,4.348 -2,7 -1.574,1.602 -2.241,3.602 -2,6 -3.375,8.454 -6.375,17.121 -9,26 -1.431,1.28 -2.098,2.947 -2,5 -0.904,0.709 -1.237,1.709 -1,3 -1.431,1.28 -2.098,2.947 -2,5 -1.093,1.849 -2.426,3.516 -4,5 -4.28,-12.663 -9.446,-24.996 -15.5,-37 -0.579,-1.428 -0.412,-2.762 0.5,-4 2.927,-1.257 5.261,-3.257 7,-6 0.667,0 1,-0.333 1,-1 1.333,0 2,-0.667 2,-2 3.333,-1.333 5.667,-3.667 7,-7 4.282,-3.451 8.115,-7.451 11.5,-12 6.508,-8.216 12.341,-16.216 17.5,-24 z m -9,3 c 0.073,1.527 -0.594,2.527 -2,3 -0.073,-1.527 0.594,-2.527 2,-3 z m -2,3 c 0.073,1.527 -0.594,2.527 -2,3 -0.073,-1.527 0.594,-2.527 2,-3 z m -159,1 c 0.073,1.527 -0.5937,2.527 -2,3 -0.073,-1.527 0.5937,-2.527 2,-3 z m 88,0 c 1.762,0.762 2.762,2.096 3,4 -1.762,-0.762 -2.762,-2.096 -3,-4 z m 67,5 c 0.073,1.527 -0.594,2.527 -2,3 -0.073,-1.527 0.594,-2.527 2,-3 z m -62,1 c 1.406,0.473 2.073,1.473 2,3 -1.406,-0.473 -2.073,-1.473 -2,-3 z m 59,3 c 0.073,1.527 -0.594,2.527 -2,3 -0.073,-1.527 0.594,-2.527 2,-3 z m -56,1 c 1.406,0.473 2.073,1.473 2,3 -1.406,-0.473 -2.073,-1.473 -2,-3 z m 2,3 c 1.406,0.473 2.073,1.473 2,3 -1.406,-0.473 -2.073,-1.473 -2,-3 z m 2,3 c 1.406,0.473 2.073,1.473 2,3 -1.406,-0.473 -2.073,-1.473 -2,-3 z m 2,3 c 1.406,0.473 2.073,1.473 2,3 -1.406,-0.473 -2.073,-1.473 -2,-3 z m 41,1 c 0.073,1.527 -0.594,2.527 -2,3 -0.073,-1.527 0.594,-2.527 2,-3 z m -38,4 c 1.406,0.473 2.073,1.473 2,3 -1.406,-0.473 -2.073,-1.473 -2,-3 z m 54,15 c -0.017,2.065 -0.35,4.065 -1,6 -0.904,-0.709 -1.237,-1.709 -1,-3 0.667,-1 1.333,-2 2,-3 z m -39,10 c 1.974,1.928 3.474,4.261 4.5,7 4.643,10.934 9.477,21.767 14.5,32.5 -0.647,1.609 -1.48,3.109 -2.5,4.5 -5.005,-14.344 -10.839,-28.344 -17.5,-42 0.363,-0.683 0.696,-1.35 1,-2 z m -23,11 c -0.473,1.406 -1.473,2.073 -3,2 0.473,-1.406 1.473,-2.073 3,-2 z m -5,3 c -0.473,1.406 -1.473,2.073 -3,2 0.473,-1.406 1.473,-2.073 3,-2 z m -5,3 c -0.473,1.406 -1.473,2.073 -3,2 0.473,-1.406 1.473,-2.073 3,-2 z m -7,4 c -0.473,1.406 -1.473,2.073 -3,2 0.473,-1.406 1.473,-2.073 3,-2 z m 44,54 c 0.333,0 0.667,0 1,0 -0.207,2.741 -1.207,5.074 -3,7 0,-1 0,-2 0,-3 0.838,-0.342 1.172,-1.008 1,-2 0.838,-0.342 1.172,-1.008 1,-2 z m -13,29 c -0.057,1.109 -0.39,2.109 -1,3 -0.838,-0.342 -1.172,-1.008 -1,-2 0.667,-0.333 1.333,-0.667 2,-1 z m -8,15 c 0.073,1.527 -0.594,2.527 -2,3 0,-0.667 0,-1.333 0,-2 0.667,-0.333 1.333,-0.667 2,-1 z m -5,9 c 0.073,1.527 -0.594,2.527 -2,3 0,-0.667 0,-1.333 0,-2 0.667,-0.333 1.333,-0.667 2,-1 z m -3,5 c 0.073,1.527 -0.594,2.527 -2,3 0,-0.667 0,-1.333 0,-2 0.667,-0.333 1.333,-0.667 2,-1 z m -4,5 c 0.333,0 0.667,0 1,0 0.073,1.527 -0.594,2.527 -2,3 0,-0.667 0,-1.333 0,-2 0.667,0 1,-0.333 1,-1 z m -2,5 c 0.073,1.527 -0.594,2.527 -2,3 0,-0.667 0,-1.333 0,-2 0.667,-0.333 1.333,-0.667 2,-1 z m -3,5 c 0.073,1.527 -0.594,2.527 -2,3 0,-0.667 0,-1.333 0,-2 0.667,-0.333 1.333,-0.667 2,-1 z m -3,3 c 0.333,0 0.667,0 1,0 0.073,1.527 -0.594,2.527 -2,3 0,-0.667 0,-1.333 0,-2 0.667,0 1,-0.333 1,-1 z m -2,3 c 0.333,0 0.667,0 1,0 0.073,1.527 -0.594,2.527 -2,3 0,-0.667 0,-1.333 0,-2 0.667,0 1,-0.333 1,-1 z m -2,3 c 0.333,0 0.667,0 1,0 0.073,1.527 -0.594,2.527 -2,3 0,-0.667 0,-1.333 0,-2 0.667,0 1,-0.333 1,-1 z m -2,3 c 0.333,0 0.667,0 1,0 0.073,1.527 -0.594,2.527 -2,3 0,-0.667 0,-1.333 0,-2 0.667,0 1,-0.333 1,-1 z m -2,3 c 0.333,0 0.667,0 1,0 0.073,1.527 -0.594,2.527 -2,3 0,-0.667 0,-1.333 0,-2 0.667,0 1,-0.333 1,-1 z m -2,3 c 0.333,0 0.667,0 1,0 0.073,1.527 -0.594,2.527 -2,3 0,-0.667 0,-1.333 0,-2 0.667,0 1,-0.333 1,-1 z m -2,3 c 0.333,0 0.667,0 1,0 -0.238,1.904 -1.238,3.238 -3,4 0,-0.667 0,-1.333 0,-2 0.667,0 1,-0.333 1,-1 0.667,0 1,-0.333 1,-1 z m -3,4 c 0.333,0 0.667,0 1,0 0.073,1.527 -0.594,2.527 -2,3 0,-0.667 0,-1.333 0,-2 0.667,0 1,-0.333 1,-1 z m -3,4 c 0.333,0 0.667,0 1,0 0.073,1.527 -0.594,2.527 -2,3 0,-0.667 0,-1.333 0,-2 0.667,0 1,-0.333 1,-1 z m -3,4 c 0.333,0 0.667,0 1,0 -0.238,1.904 -1.238,3.238 -3,4 0,-0.667 0,-1.333 0,-2 0.667,0 1,-0.333 1,-1 0.667,0 1,-0.333 1,-1 z"
       id="path10" />
  </g>
  <g
     id="g16">
    <path
       style="opacity:1"
       fill="#272727"
       d="m 477.5,74.5 c 0.397,-1.025 1.063,-1.1917 2,-0.5 -0.594,0.4643 -1.261,0.631 -2,0.5 z"
       id="path14" />
  </g>
  <g
     id="g20">
    <path
       style="opacity:1"
       fill="#6e6f6e"
       d="m 472.5,74.5 c 1.333,0.6667 1.333,0.6667 0,0 z"
       id="path18" />
  </g>
  <g
     id="g24">
    <path
       style="opacity:1"
       fill="#ededed"
       d="m 491.5,80.5 c 0,0.6667 0.333,1 1,1 0.333,1 1,1.6667 2,2 0,0.6667 0.333,1 1,1 0,0.6667 0.333,1 1,1 0,0.6667 0.333,1 1,1 1.765,3.2089 3.765,6.2089 6,9 1.15,2.7982 2.483,5.465 4,8 -0.172,0.992 0.162,1.658 1,2 0.095,2.286 0.762,4.286 2,6 -0.237,1.291 0.096,2.291 1,3 -0.268,1.599 0.066,2.932 1,4 0.047,3.068 0.547,6.068 1.5,9 0.494,-1.634 0.66,-3.301 0.5,-5 0.574,2.288 1.574,4.455 3,6.5 -0.333,0.333 -0.667,0.667 -1,1 1.658,1.663 3.658,2.496 6,2.5 0,0.667 0.333,1 1,1 0,0.667 0.333,1 1,1 0,0.667 0.333,1 1,1 0.898,7.624 1.231,15.291 1,23 -0.968,2.107 -1.302,4.441 -1,7 -1.458,3.773 -1.958,7.773 -1.5,12 0.198,-1.882 0.698,-3.548 1.5,-5 0.178,3.622 -0.489,6.956 -2,10 -0.333,-5.333 -0.667,-5.333 -1,0 -0.667,0 -1,0.333 -1,1 0,1 0,2 0,3 -0.61,0.891 -0.943,1.891 -1,3 0,0.667 0,1.333 0,2 -0.904,0.709 -1.237,1.709 -1,3 0,0.333 0,0.667 0,1 -0.61,0.891 -0.943,1.891 -1,3 0,0.667 0,1.333 0,2 -0.333,0.667 -0.667,1.333 -1,2 0,0.667 0,1.333 0,2 -0.667,0 -1,0.333 -1,1 0,1 0,2 0,3 -1.152,3.607 -2.152,7.273 -3,11 0,0.333 0,0.667 0,1 -0.934,1.068 -1.268,2.401 -1,4 -0.904,0.709 -1.237,1.709 -1,3 -0.923,3.972 -0.923,4.306 0,1 0.972,2.598 1.972,2.598 3,0 20.653,-22.824 43.32,-43.324 68,-61.5 5.645,-4.154 11.645,-7.654 18,-10.5 1,0.333 1.667,1 2,2 -1.14,1.301 -2.473,2.468 -4,3.5 0.916,0.278 1.582,0.778 2,1.5 -0.333,0.667 -0.667,1.333 -1,2 -0.992,-0.172 -1.658,0.162 -2,1 -1.527,-0.073 -2.527,0.594 -3,2 -0.667,0 -1,0.333 -1,1 -0.992,-0.172 -1.658,0.162 -2,1 -0.667,0 -1,0.333 -1,1 -0.992,-0.172 -1.658,0.162 -2,1 -0.667,0 -1,0.333 -1,1 -0.667,0 -1,0.333 -1,1 -0.992,-0.172 -1.658,0.162 -2,1 -0.667,0 -1,0.333 -1,1 -0.992,-0.172 -1.658,0.162 -2,1 -0.667,0 -1,0.333 -1,1 -0.667,0 -1,0.333 -1,1 -0.667,0 -1,0.333 -1,1 -1.333,0.333 -1.333,0.667 0,1 -0.342,0.838 -1.008,1.172 -2,1 -0.333,-1.333 -0.667,-1.333 -1,0 -0.667,0 -1,0.333 -1,1 -0.333,0 -0.667,0 -1,0 -1,0.333 -1.667,1 -2,2 -0.667,0 -1,0.333 -1,1 -0.667,0 -1,0.333 -1,1 -0.667,0 -1,0.333 -1,1 -9.571,7.396 -18.738,15.396 -27.5,24 -0.483,0.948 -0.649,1.948 -0.5,3 -4.319,3.322 -7.985,7.322 -11,12 -0.667,0 -1,0.333 -1,1 -0.667,0 -1,0.333 -1,1 -0.667,0 -1,0.333 -1,1 -0.667,0 -1,0.333 -1,1 -2.743,1.739 -4.743,4.073 -6,7 -0.667,0 -1,0.333 -1,1 -0.667,0 -1,0.333 -1,1 -0.667,0 -1,0.333 -1,1 -4.331,3.498 -8.164,7.498 -11.5,12 -3.271,9.811 -6.937,19.478 -11,29 -7.88,38.451 -14.38,76.951 -19.5,115.5 5.826,0.95 11.493,0.45 17,-1.5 -3.632,-9.978 -2.298,-19.145 4,-27.5 10.729,-6.136 16.396,-2.969 17,9.5 0.027,9.28 -3.64,16.613 -11,22 -0.667,0.333 -1.333,0.667 -2,1 -1.473,0.572 -2.807,1.405 -4,2.5 0.594,0.464 1.261,0.631 2,0.5 0.667,0 1,0.333 1,1 -1.205,1.638 -2.538,1.971 -4,1 -1.291,0.237 -2.291,-0.096 -3,-1 1.528,-0.017 2.028,-0.684 1.5,-2 -7.021,1.703 -14.188,2.369 -21.5,2 -0.342,-0.838 -1.008,-1.172 -2,-1 -1.336,-1.51 -2.503,-3.177 -3.5,-5 -0.169,-4.661 -0.003,-9.328 0.5,-14 0.961,-1.765 1.295,-3.765 1,-6 0.961,-1.765 1.295,-3.765 1,-6 0.951,-1.419 1.284,-3.085 1,-5 0.667,0 1,-0.333 1,-1 0,-1 0,-2 0,-3 0.904,-0.709 1.237,-1.709 1,-3 0,-1.333 0,-2.667 0,-4 0.838,-0.342 1.172,-1.008 1,-2 0,-1 0,-2 0,-3 0.934,-1.068 1.268,-2.401 1,-4 0,-1.333 0,-2.667 0,-4 0.333,-0.667 0.667,-1.333 1,-2 0,-1.333 0,-2.667 0,-4 0.333,-0.667 0.667,-1.333 1,-2 0,-1.333 0,-2.667 0,-4 0.904,-0.709 1.237,-1.709 1,-3 0,-1 0,-2 0,-3 0.664,-2.637 1.331,-5.303 2,-8 -0.346,-1.196 -0.846,-1.196 -1.5,0 -0.333,1.667 -0.667,3.333 -1,5 -0.915,-0.828 -1.581,-1.828 -2,-3 -2.5,4.333 -5,8.667 -7.5,13 0.7,0.287 1.367,0.62 2,1 -1.012,1.372 -2.012,2.705 -3,4 0.131,-0.739 -0.036,-1.406 -0.5,-2 -2.421,3.571 -4.587,7.238 -6.5,11 -0.667,0 -1,0.333 -1,1 -4.846,6.01 -10.513,11.177 -17,15.5 -1.238,0.69 -1.238,1.19 0,1.5 -0.342,0.838 -1.008,1.172 -2,1 -2.464,-0.324 -5.131,-0.491 -8,-0.5 -2.468,-0.979 -4.468,-2.479 -6,-4.5 0,-0.333 0,-0.667 0,-1 -0.648,-1.586 -1.148,-3.253 -1.5,-5 -0.21,1.558 -0.71,2.891 -1.5,4 0.065,-0.438 -0.101,-0.772 -0.5,-1 -2.037,2.206 -4.203,4.206 -6.5,6 -0.333,-1.333 -0.667,-1.333 -1,0 -4.753,4.417 -8.753,9.417 -12,15 -0.667,0 -1,0.333 -1,1 -1.333,0.667 -2.333,1.667 -3,3 0,0.667 0.333,1 1,1 0.086,0.996 -0.248,1.829 -1,2.5 -1.266,0.309 -2.433,0.809 -3.5,1.5 -6.837,26.014 -13.67,52.014 -20.5,78 -0.904,-0.709 -1.237,-1.709 -1,-3 1.033,-7.465 2.699,-14.799 5,-22 -0.399,-1.697 -0.899,-3.363 -1.5,-5 -3.526,14.106 -7.359,28.106 -11.5,42 -0.667,0 -1,-0.333 -1,-1 5.03,-23.453 10.696,-46.786 17,-70 -0.237,-2.563 -0.737,-2.563 -1.5,0 -3.844,14.378 -7.844,28.711 -12,43 -0.654,1.196 -1.154,1.196 -1.5,0 5.038,-17.799 9.204,-35.466 12.5,-53 -0.92,-0.43 -1.753,-0.764 -2.5,-1 3.94,-3.88 6.273,-8.546 7,-14 1.25,-0.077 2.083,-0.744 2.5,-2 0.705,2.486 1.538,2.486 2.5,0 1.651,-5.935 2.984,-11.935 4,-18 2.091,-4.691 3.424,-9.691 4,-15 0.904,-0.709 1.237,-1.709 1,-3 0.838,-0.342 1.172,-1.008 1,-2 0,-1 0,-2 0,-3 0.934,-1.068 1.268,-2.401 1,-4 0.934,-1.068 1.268,-2.401 1,-4 0.904,-0.709 1.237,-1.709 1,-3 0.667,0 1,-0.333 1,-1 0,-1 0,-2 0,-3 0.667,0 1,-0.333 1,-1 0,-1 0,-2 0,-3 0.667,0 1,-0.333 1,-1 0,-0.667 -0.333,-1 -1,-1 -0.739,0.131 -1.406,-0.036 -2,-0.5 1.196,-0.654 1.196,-1.154 0,-1.5 -2.295,0.932 -4.629,1.765 -7,2.5 0.556,0.383 0.889,0.883 1,1.5 -4,0 -8,0 -12,0 0.111,-0.617 0.444,-1.117 1,-1.5 -1.525,-1.009 -3.192,-1.509 -5,-1.5 -0.426,1.639 -0.426,2.972 0,4 -2.117,4.115 -3.784,8.448 -5,13 -0.722,-0.418 -1.222,-1.084 -1.5,-2 -1.259,2.856 -2.759,5.523 -4.5,8 -0.667,0 -1,0.333 -1,1 -2.413,1.551 -5.079,2.217 -8,2 -0.333,0 -0.667,0 -1,0 -4.246,-1.505 -6.246,-4.172 -6,-8 1.144,0.683 1.144,0.349 0,-1 0,-0.667 -0.333,-1 -1,-1 0.172,-0.992 -0.162,-1.658 -1,-2 -1.123,-1.257 -1.789,-0.924 -2,1 -0.838,0.342 -1.172,1.008 -1,2 -0.838,0.342 -1.172,1.008 -1,2 -0.838,0.342 -1.172,1.008 -1,2 -0.667,0 -1,0.333 -1,1 -0.667,0 -1,0.333 -1,1 -0.61,0.891 -0.943,1.891 -1,3 -0.838,0.342 -1.172,1.008 -1,2 -0.667,0 -1,0.333 -1,1 -1,0.333 -1.667,1 -2,2 -0.722,-0.418 -1.222,-1.084 -1.5,-2 -0.671,0.752 -1.504,1.086 -2.5,1 0.065,-0.438 -0.101,-0.772 -0.5,-1 -1.307,1.692 -2.807,3.025 -4.5,4 1.576,-3.426 3.409,-6.76 5.5,-10 0.977,-2.24 1.477,-4.573 1.5,-7 3.81,0.524 5.81,-1.143 6,-5 0.996,0.086 1.829,-0.248 2.5,-1 1.247,-2.829 2.747,-5.495 4.5,-8 1.419,1.836 2.586,3.836 3.5,6 0.671,0.752 1.504,1.086 2.5,1 0.82,1.64 1.653,3.307 2.5,5 0.837,1.507 2.004,2.007 3.5,1.5 2.774,-5.156 4.441,-10.656 5,-16.5 2.86,0.416 5.026,-0.584 6.5,-3 3.35,-1.338 6.684,-2.671 10,-4 7.795,1.747 15.295,0.413 22.5,-4 1.527,0.073 2.527,-0.594 3,-2 0,-0.667 0,-1.333 0,-2 0.838,-0.342 1.172,-1.008 1,-2 0,-0.667 0,-1.333 0,-2 2.972,-11.216 5.972,-22.55 9,-34 -0.043,-0.916 -0.376,-1.583 -1,-2 0,-1 0,-2 0,-3 0.722,0.418 1.222,1.084 1.5,2 1.708,-3.731 2.208,-7.398 1.5,-11 0,-1 0,-2 0,-3 0.722,0.418 1.222,1.084 1.5,2 0.732,-3.029 1.565,-6.029 2.5,-9 -0.043,-0.916 -0.376,-1.583 -1,-2 5.825,-26.3 11.492,-52.633 17,-79 5.515,-21.047 11.515,-42.047 18,-63 2.473,-4.2705 4.973,-8.6039 7.5,-13 8.233,-8.5497 17.066,-9.2164 26.5,-2 z m -44,90 c 4.94,-20.003 10.274,-40.003 16,-60 2.265,-7.201 5.098,-14.2008 8.5,-21 1.333,-2.6667 3.333,-4.6667 6,-6 8.742,4.1165 14.742,10.7832 18,20 3.741,9.057 6.574,18.39 8.5,28 1.579,31.273 -4.588,60.939 -18.5,89 -16.327,30.659 -38.661,55.992 -67,76 9.995,-41.834 19.495,-83.834 28.5,-126 z m 78,-5 c 0,2.333 0,4.667 0,7 -0.802,1.452 -1.302,3.118 -1.5,5 -0.458,-4.227 0.042,-8.227 1.5,-12 z m -34,73 c -0.841,6.706 -2.007,13.373 -3.5,20 -11.994,14.825 -24.16,29.492 -36.5,44 -1.473,-1.24 -3.14,-2.24 -5,-3 -1.062,0.925 -1.062,1.925 0,3 -3.294,-0.708 -6.46,-0.708 -9.5,0 -0.5,-1.167 -1.333,-2 -2.5,-2.5 2.817,-2.982 5.817,-5.815 9,-8.5 8,-6 15,-13 21,-21 6.387,-6.054 12.054,-12.721 17,-20 0.838,-0.342 1.172,-1.008 1,-2 2.635,-2.579 4.801,-5.579 6.5,-9 -0.083,2.619 -0.25,5.286 -0.5,8 1.126,-2.965 2.126,-5.965 3,-9 z m -16,54 c -7.343,18.356 -16.51,35.689 -27.5,52 -3.915,4.547 -8.248,8.547 -13,12 -0.945,-0.405 -1.612,-1.072 -2,-2 -1.034,-4.957 -0.534,-9.624 1.5,-14 2.685,-2.69 5.018,-5.69 7,-9 1.333,-0.667 2.333,-1.667 3,-3 6.371,-7.037 12.371,-14.371 18,-22 4.036,-4.034 7.702,-8.368 11,-13 0.667,-0.333 1.333,-0.667 2,-1 z m -13,12 c 0,0.667 0,1.333 0,2 -0.667,0.333 -1.333,0.667 -2,1 -0.073,-1.527 0.594,-2.527 2,-3 z m -37,2 c -4.508,7.688 -9.508,15.022 -15,22 0.513,-4.053 1.346,-8.053 2.5,-12 0.2,-1.82 1.034,-3.153 2.5,-4 3.333,-2 6.667,-4 10,-6 z m 5,3 c 0.934,1.068 1.268,2.401 1,4 -0.667,1 -1.333,2 -2,3 0.237,-1.291 -0.096,-2.291 -1,-3 1.1,-1.105 1.767,-2.438 2,-4 z m 6,4 c 0.929,0.815 1.929,1.648 3,2.5 -1.952,2.074 -3.785,4.241 -5.5,6.5 0.498,-2.027 0.331,-4.027 -0.5,-6 -0.925,0.857 -1.592,1.857 -2,3 -0.454,-1.759 -0.454,-3.759 0,-6 0.722,-0.418 1.222,-1.084 1.5,-2 0.816,1.323 1.983,1.989 3.5,2 z m -8,0 c 0,1 0,2 0,3 -1.371,2.436 -2.371,5.103 -3,8 -1.149,2.922 -2.149,5.922 -3,9 -0.825,0.886 -1.825,1.219 -3,1 0.09,2.652 -0.576,4.985 -2,7 -0.034,-4.216 1.299,-7.883 4,-11 -0.387,-1.22 -1.22,-1.887 -2.5,-2 -3.823,6.289 -8.156,12.289 -13,18 0.308,-5.919 2.141,-11.253 5.5,-16 0.397,1.025 1.063,1.192 2,0.5 4.663,-6.184 9.663,-12.018 15,-17.5 z m -57,10 c 0.241,2.398 -0.426,4.398 -2,6 0.095,-2.286 0.762,-4.286 2,-6 z m -22,8 c -0.667,0.333 -1.333,0.667 -2,1 0.211,-1.924 0.877,-2.257 2,-1 z m 16,6 c 0,1.333 -0.667,2 -2,2 0.333,-1 1,-1.667 2,-2 z m 48,2 c 0.624,0.417 0.957,1.084 1,2 -0.564,2.319 -1.064,4.653 -1.5,7 -3.667,4.333 -7.333,8.667 -11,13 0.169,-3.019 0.836,-6.019 2,-9 3.796,-3.949 6.963,-8.283 9.5,-13 z m -71,1 c 1.215,1.279 0.882,2.279 -1,3 0.057,-1.109 0.39,-2.109 1,-3 z m -3,6 c 0.073,1.527 -0.594,2.527 -2,3 0,-0.333 0,-0.667 0,-1 0.333,-1 1,-1.667 2,-2 z m 103,13 c -0.473,1.406 -1.473,2.073 -3,2 0.473,-1.406 1.473,-2.073 3,-2 z m 66,25 c -0.386,-4.137 -1.386,-8.137 -3,-12 -1.819,-2.411 -3.819,-2.578 -6,-0.5 -3.877,6.38 -4.877,13.214 -3,20.5 -0.116,2.052 -1.116,3.385 -3,4 -3.821,-10.201 -2.154,-19.368 5,-27.5 8.177,-2.172 11.844,1.162 11,10 -0.006,2.033 -0.339,3.866 -1,5.5 z m -103,-16 c 0.073,1.527 -0.594,2.527 -2,3 -0.073,-1.527 0.594,-2.527 2,-3 z m 95,5 c 1,0 2,0 3,0 1.28,6.981 -0.22,13.314 -4.5,19 -2.121,-6.507 -1.621,-12.841 1.5,-19 z m -34,12 c -0.503,4.672 -0.669,9.339 -0.5,14 0.997,1.823 2.164,3.49 3.5,5 -2.252,-0.416 -3.752,-1.749 -4.5,-4 -0.498,-2.982 -0.665,-5.982 -0.5,-9 0.667,-2 1.333,-4 2,-6 z m -83,7 c 0.329,2.728 -0.337,5.062 -2,7 -0.09,-2.652 0.576,-4.985 2,-7 z m 120,2 c 0,2 -1,3 -3,3 0.667,-1.333 1.667,-2.333 3,-3 z m -117,4 c 0.09,2.652 -0.576,4.985 -2,7 -0.09,-2.652 0.576,-4.985 2,-7 z m 105,7 c -6.816,1.185 -13.483,1.185 -20,0 7.312,0.369 14.479,-0.297 21.5,-2 0.528,1.316 0.028,1.983 -1.5,2 z"
       id="path22" />
  </g>
  <g
     id="g28">
    <path
       style="opacity:1"
       fill="#959695"
       d="m 466.5,77.5 c 1.333,0.6667 1.333,0.6667 0,0 z"
       id="path26" />
  </g>
  <g
     id="g32">
    <path
       style="opacity:1"
       fill="#999a99"
       d="m 490.5,78.5 c -0.667,-1.3333 -0.667,-1.3333 0,0 z"
       id="path30" />
  </g>
  <g
     id="g36">
    <path
       style="opacity:1"
       fill="#b4b5b4"
       d="m 466.5,78.5 c -0.667,0.6667 -0.667,0.6667 0,0 z"
       id="path34" />
  </g>
  <g
     id="g40">
    <path
       style="opacity:1"
       fill="#b5b6b5"
       d="m 490.5,78.5 c 0.667,0 1,0.3333 1,1 -0.333,-0.3333 -0.667,-0.6667 -1,-1 z"
       id="path38" />
  </g>
  <g
     id="g44">
    <path
       style="opacity:1"
       fill="#c5c6c5"
       d="m 465.5,79.5 c -0.667,0.6667 -0.667,0.6667 0,0 z"
       id="path42" />
  </g>
  <g
     id="g48">
    <path
       style="opacity:1"
       fill="#707070"
       d="m 491.5,80.5 c 0,-0.3333 0,-0.6667 0,-1 1.527,-0.073 2.527,0.5937 3,2 -0.667,0 -1.333,0 -2,0 -0.667,0 -1,-0.3333 -1,-1 z"
       id="path46" />
  </g>
  <g
     id="g52">
    <path
       style="opacity:1"
       fill="#868786"
       d="m 464.5,80.5 c -0.667,0.6667 -0.667,0.6667 0,0 z"
       id="path50" />
  </g>
  <g
     id="g56">
    <path
       style="opacity:1"
       fill="#868686"
       d="m 472.5,82.5 c 0.925,-2.3837 2.758,-3.3837 5.5,-3 7.298,1.6436 7.298,1.977 0,1 -2.009,0.2579 -3.843,0.9245 -5.5,2 z"
       id="path54" />
  </g>
  <g
     id="g60">
    <path
       style="opacity:1"
       fill="#969696"
       d="m 463.5,81.5 c 0.172,0.9916 -0.162,1.6583 -1,2 -0.172,-0.9916 0.162,-1.6583 1,-2 z"
       id="path58" />
  </g>
  <g
     id="g64">
    <path
       style="opacity:1"
       fill="#b7b8b7"
       d="m 462.5,83.5 c -0.667,0.6667 -0.667,0.6667 0,0 z"
       id="path62" />
  </g>
  <g
     id="g68">
    <path
       style="opacity:1"
       fill="#7b7b7b"
       d="m 494.5,81.5 c 2.587,1.1485 3.587,2.8152 3,5 -0.667,0 -1,-0.3333 -1,-1 -0.667,0 -1,-0.3333 -1,-1 -0.667,0 -1,-0.3333 -1,-1 0,-0.6667 0,-1.3333 0,-2 z"
       id="path66" />
  </g>
  <g
     id="g72">
    <path
       style="opacity:1"
       fill="#929292"
       d="m 461.5,84.5 c 0.172,0.9916 -0.162,1.6583 -1,2 -0.172,-0.9916 0.162,-1.6583 1,-2 z"
       id="path70" />
  </g>
  <g
     id="g76">
    <path
       style="opacity:1"
       fill="#959695"
       d="m 460.5,86.5 c 0.172,0.9916 -0.162,1.6583 -1,2 -0.172,-0.9916 0.162,-1.6583 1,-2 z"
       id="path74" />
  </g>
  <g
     id="g80">
    <path
       style="opacity:1"
       fill="#a1a1a1"
       d="m 459.5,88.5 c 0.172,0.9916 -0.162,1.6583 -1,2 -0.172,-0.9916 0.162,-1.6583 1,-2 z"
       id="path78" />
  </g>
  <g
     id="g84">
    <path
       style="opacity:1"
       fill="#a5a5a5"
       d="m 500.5,101.5 c -0.617,0.111 -1.117,0.444 -1.5,1 -3.44,-6.5608 -7.606,-12.5608 -12.5,-18 0.333,-0.3333 0.667,-0.6667 1,-1 5.9,4.8956 10.234,10.8956 13,18 z"
       id="path82" />
  </g>
  <g
     id="g88">
    <path
       style="opacity:1"
       fill="#a9a9a9"
       d="m 458.5,90.5 c 0.131,0.7389 -0.036,1.4056 -0.5,2 -0.692,-0.9368 -0.525,-1.6034 0.5,-2 z"
       id="path86" />
  </g>
  <g
     id="g92">
    <path
       style="opacity:1"
       fill="#686868"
       d="m 457.5,95.5 c -0.333,0 -0.667,0 -1,0 0.333,-2.6667 0.667,-2.6667 1,0 z"
       id="path90" />
  </g>
  <g
     id="g96">
    <path
       style="opacity:1"
       fill="#9a9a9a"
       d="m 503.5,95.5 c 0.247,-2.4752 0.913,-2.4752 2,0 -0.47,0.963 -1.137,0.963 -2,0 z"
       id="path94" />
  </g>
  <g
     id="g100">
    <path
       style="opacity:1"
       fill="#a0a0a0"
       d="m 456.5,95.5 c 0.131,0.7389 -0.036,1.4056 -0.5,2 -0.692,-0.9368 -0.525,-1.6034 0.5,-2 z"
       id="path98" />
  </g>
  <g
     id="g104">
    <path
       style="opacity:1"
       fill="#3f3f3f"
       d="m 454.5,98.5 c 1.025,0.3966 1.192,1.0632 0.5,2 -0.464,-0.5944 -0.631,-1.2611 -0.5,-2 z"
       id="path102" />
  </g>
  <g
     id="g108">
    <path
       style="opacity:1"
       fill="#525352"
       d="m 453.5,101.5 c 1.333,0.667 1.333,0.667 0,0 z"
       id="path106" />
  </g>
  <g
     id="g112">
    <path
       style="opacity:1"
       fill="#6d6d6d"
       d="m 508.5,105.5 c 0.172,-0.992 -0.162,-1.658 -1,-2 -0.266,-1.847 0.068,-2.514 1,-2 1.205,1.495 1.205,2.828 0,4 z"
       id="path110" />
  </g>
  <g
     id="g116">
    <path
       style="opacity:1"
       fill="#7e7e7e"
       d="m 512.5,114.5 c -0.333,0 -0.667,0 -1,0 0.237,-1.291 -0.096,-2.291 -1,-3 -0.149,-1.052 0.017,-2.052 0.5,-3 1.128,1.845 1.628,3.845 1.5,6 z"
       id="path114" />
  </g>
  <g
     id="g120">
    <path
       style="opacity:1"
       fill="#b5b5b5"
       d="m 500.5,101.5 c 3.636,6.903 6.303,14.236 8,22 -0.667,1.333 -1.333,2.667 -2,4 -1.524,-3.503 -1.858,-7.17 -1,-11 -2.151,-2.272 -3.651,-4.939 -4.5,-8 -0.684,-1.284 -0.517,-2.451 0.5,-3.5 -0.667,-0.333 -1.333,-0.667 -2,-1 0.752,-0.671 1.086,-1.504 1,-2.5 z"
       id="path118" />
  </g>
  <g
     id="g124">
    <path
       style="opacity:1"
       fill="#8e8e8e"
       d="m 289.5,107.5 c 0.858,3.32 0.358,6.653 -1.5,10 0.161,-3.332 0.661,-6.665 1.5,-10 z"
       id="path122" />
  </g>
  <g
     id="g128">
    <path
       style="opacity:1"
       fill="#555555"
       d="m 448.5,116.5 c 1.025,0.397 1.192,1.063 0.5,2 -0.464,-0.594 -0.631,-1.261 -0.5,-2 z"
       id="path126" />
  </g>
  <g
     id="g132">
    <path
       style="opacity:1"
       fill="#a5a5a5"
       d="m 512.5,114.5 c 1.54,2.338 2.206,5.005 2,8 -0.667,-1.333 -1.333,-2.667 -2,-4 0,-1.333 0,-2.667 0,-4 z"
       id="path130" />
  </g>
  <g
     id="g136">
    <path
       style="opacity:1"
       fill="#717171"
       d="m 447.5,122.5 c -0.149,-1.052 0.017,-2.052 0.5,-3 0.74,1.249 0.573,2.249 -0.5,3 z"
       id="path134" />
  </g>
  <g
     id="g140">
    <path
       style="opacity:1"
       fill="#6f6f6f"
       d="m 447.5,122.5 c 0.268,1.599 -0.066,2.932 -1,4 -0.268,-1.599 0.066,-2.932 1,-4 z"
       id="path138" />
  </g>
  <g
     id="g144">
    <path
       style="opacity:1"
       fill="#737373"
       d="m 446.5,126.5 c 0.149,1.052 -0.017,2.052 -0.5,3 -0.74,-1.249 -0.573,-2.249 0.5,-3 z"
       id="path142" />
  </g>
  <g
     id="g148">
    <path
       style="opacity:1"
       fill="#707070"
       d="m 288.5,129.5 c 0.597,0.235 0.93,0.735 1,1.5 -0.578,1.811 -1.078,3.645 -1.5,5.5 -0.556,-2.385 -0.39,-4.718 0.5,-7 z"
       id="path146" />
  </g>
  <g
     id="g152">
    <path
       style="opacity:1"
       fill="#7b7b7b"
       d="m 444.5,130.5 c 1.073,0.751 1.24,1.751 0.5,3 -0.483,-0.948 -0.649,-1.948 -0.5,-3 z"
       id="path150" />
  </g>
  <g
     id="g156">
    <path
       style="opacity:1"
       fill="#7a7a7a"
       d="m 522.5,132.5 c 1.768,-1.007 3.101,-0.341 4,2 -0.124,0.607 -0.457,0.94 -1,1 -0.667,0 -1,-0.333 -1,-1 -0.667,0 -1,-0.333 -1,-1 -0.667,0 -1,-0.333 -1,-1 z"
       id="path154" />
  </g>
  <g
     id="g160">
    <path
       style="opacity:1"
       fill="#4e4e4e"
       d="m 443.5,134.5 c 1.025,0.397 1.192,1.063 0.5,2 -0.464,-0.594 -0.631,-1.261 -0.5,-2 z"
       id="path158" />
  </g>
  <g
     id="g164">
    <path
       style="opacity:1"
       fill="#717171"
       d="m 508.5,123.5 c 1.188,6.322 1.188,12.656 0,19 -0.333,0 -0.667,0 -1,0 0.409,-4.348 0.576,-8.681 0.5,-13 -0.333,0.667 -0.667,1.333 -1,2 -0.49,-1.293 -0.657,-2.627 -0.5,-4 0.667,-1.333 1.333,-2.667 2,-4 z"
       id="path162" />
  </g>
  <g
     id="g168">
    <path
       style="opacity:1"
       fill="#5c5c5c"
       d="m 442.5,138.5 c 1.073,0.751 1.24,1.751 0.5,3 -0.483,-0.948 -0.649,-1.948 -0.5,-3 z"
       id="path166" />
  </g>
  <g
     id="g172">
    <path
       style="opacity:1"
       fill="#797979"
       d="m 441.5,142.5 c 1.073,0.751 1.24,1.751 0.5,3 -0.483,-0.948 -0.649,-1.948 -0.5,-3 z"
       id="path170" />
  </g>
  <g
     id="g176">
    <path
       style="opacity:1"
       fill="#a7a7a7"
       d="m 507.5,162.5 c -0.333,0 -0.667,0 -1,0 1.774,-7.237 3.274,-14.57 4.5,-22 0.238,4.348 -0.095,8.681 -1,13 -1.302,2.875 -2.135,5.875 -2.5,9 z"
       id="path174" />
  </g>
  <g
     id="g180">
    <path
       style="opacity:1"
       fill="#b3b3b3"
       d="m 286.5,137.5 c -0.096,8.339 -1.596,16.672 -4.5,25 -3.254,-7.061 -2.587,-13.728 2,-20 0.333,1 0.667,2 1,3 0.576,-1.877 0.409,-3.711 -0.5,-5.5 0.444,-1.762 0.944,-1.595 1.5,0.5 0.483,-0.948 0.649,-1.948 0.5,-3 z"
       id="path178" />
  </g>
  <g
     id="g184">
    <path
       style="opacity:1"
       fill="#787878"
       d="m 440.5,146.5 c 1.073,0.751 1.24,1.751 0.5,3 -0.483,-0.948 -0.649,-1.948 -0.5,-3 z"
       id="path182" />
  </g>
  <g
     id="g188">
    <path
       style="opacity:1"
       fill="#d9d9d9"
       d="m 622.5,150.5 c -0.667,0 -1,0.333 -1,1 -1.291,-0.237 -2.291,0.096 -3,1 3.333,0.667 6.667,1.333 10,2 -9.84,-0.165 -18.507,2.835 -26,9 -0.667,0 -1.333,0 -2,0 -0.418,-0.722 -1.084,-1.222 -2,-1.5 1.527,-1.032 2.86,-2.199 4,-3.5 -0.333,-1 -1,-1.667 -2,-2 10.266,-7.926 21.599,-10.093 34,-6.5 3.759,3.688 5.759,8.188 6,13.5 -0.441,6.597 -1.941,12.931 -4.5,19 1.96,-7.833 2.627,-15.833 2,-24 -2.984,-7.075 -8.151,-9.741 -15.5,-8 z"
       id="path186" />
  </g>
  <g
     id="g192">
    <path
       style="opacity:1"
       fill="#9b9b9b"
       d="m 439.5,150.5 c 1.073,0.751 1.24,1.751 0.5,3 -0.483,-0.948 -0.649,-1.948 -0.5,-3 z"
       id="path190" />
  </g>
  <g
     id="g196">
    <path
       style="opacity:1"
       fill="#dddddd"
       d="m 463.5,110.5 c -5.726,19.997 -11.06,39.997 -16,60 0.131,-0.739 -0.036,-1.406 -0.5,-2 -0.283,3.242 -1.117,3.576 -2.5,1 -0.985,2.272 -1.819,4.605 -2.5,7 0.049,-4.917 0.882,-9.75 2.5,-14.5 -0.83,-1.465 -0.996,-2.965 -0.5,-4.5 0.333,0.333 0.667,0.667 1,1 0.353,-1.172 0.187,-2.338 -0.5,-3.5 0.667,-0.667 1.333,-1.333 2,-2 -0.83,-1.465 -0.996,-2.965 -0.5,-4.5 0.333,0.667 0.667,1.333 1,2 0.595,-1.399 0.428,-2.732 -0.5,-4 0.941,0.011 1.608,-0.489 2,-1.5 -0.83,-1.465 -0.996,-2.965 -0.5,-4.5 0.333,0.667 0.667,1.333 1,2 1.294,-2.832 1.461,-5.665 0.5,-8.5 0.578,-1.811 1.078,-3.645 1.5,-5.5 0.333,0.667 0.667,1.333 1,2 0.5,-1.5 1,-3 1.5,-4.5 -0.83,-1.465 -0.996,-2.965 -0.5,-4.5 0.974,2.378 1.641,2.044 2,-1 0.651,1.735 0.485,3.402 -0.5,5 0.308,0.808 0.808,1.475 1.5,2 1.847,-6.392 3.847,-12.725 6,-19 0.278,0.916 0.778,1.582 1.5,2 z"
       id="path194" />
  </g>
  <g
     id="g200">
    <path
       style="opacity:1"
       fill="#787878"
       d="m 622.5,150.5 c 1.667,0.667 3.333,1.333 5,2 -2,0 -4,0 -6,0 0,-0.333 0,-0.667 0,-1 0,-0.667 0.333,-1 1,-1 z"
       id="path198" />
  </g>
  <g
     id="g204">
    <path
       style="opacity:1"
       fill="#5e5e5e"
       d="m 136.5,153.5 c 4,-1.333 8,-1.333 12,0 -1.599,-0.268 -2.932,0.066 -4,1 -1.667,0 -3.333,0 -5,0 -0.709,-0.904 -1.709,-1.237 -3,-1 z"
       id="path202" />
  </g>
  <g
     id="g208">
    <path
       style="opacity:1"
       fill="#676767"
       d="m 439.5,158.5 c -0.333,0 -0.667,0 -1,0 0.333,-5.333 0.667,-5.333 1,0 z"
       id="path206" />
  </g>
  <g
     id="g212">
    <path
       style="opacity:1"
       fill="#e8e8e8"
       d="m 618.5,152.5 c 1,0 2,0 3,0 2,0 4,0 6,0 3.142,0.299 5.309,1.966 6.5,5 0.645,6.135 -0.022,12.135 -2,18 0.456,-5.63 0.456,-11.296 0,-17 -0.66,-1.824 -1.827,-3.157 -3.5,-4 -3.333,-0.667 -6.667,-1.333 -10,-2 z"
       id="path210" />
  </g>
  <g
     id="g216">
    <path
       style="opacity:1"
       fill="#989898"
       d="m 129.5,154.5 c 0,0.667 0.333,1 1,1 0.709,0.904 1.709,1.237 3,1 -12.161,4.137 -22.494,11.137 -31,21 -2.6518,3.982 -5.6518,7.649 -9,11 -1.4063,0.473 -2.073,1.473 -2,3 -1.1612,3.068 -3.1612,5.901 -6,8.5 0,1 0,2 0,3 -2.6893,2.548 -5.0226,5.382 -7,8.5 0,-0.667 -0.3333,-1 -1,-1 0.4175,-0.722 1.0842,-1.222 2,-1.5 -0.2284,-0.399 -0.5618,-0.565 -1,-0.5 0.4175,-0.722 1.0842,-1.222 2,-1.5 -0.2284,-0.399 -0.5618,-0.565 -1,-0.5 0.4175,-0.722 1.0842,-1.222 2,-1.5 -0.2284,-0.399 -0.5618,-0.565 -1,-0.5 0.4175,-0.722 1.0842,-1.222 2,-1.5 -0.2284,-0.399 -0.5618,-0.565 -1,-0.5 0.6667,-0.667 1.3333,-1.333 2,-2 0.8382,-0.342 1.1716,-1.008 1,-2 0.8382,-0.342 1.1716,-1.008 1,-2 0.6667,0 1,-0.333 1,-1 0.8382,-0.342 1.1716,-1.008 1,-2 1.3333,-0.333 1.3333,-0.667 0,-1 0.6667,-0.667 1.3333,-1.333 2,-2 0.8382,-0.342 1.1716,-1.008 1,-2 0.6667,0 1,-0.333 1,-1 0.8382,-0.342 1.1716,-1.008 1,-2 0.6667,0 1,-0.333 1,-1 0.6667,0 1,-0.333 1,-1 0.8382,-0.342 1.1716,-1.008 1,-2 0.6667,0 1,-0.333 1,-1 0.6667,0 1,-0.333 1,-1 0.6667,0 1,-0.333 1,-1 1.4063,-0.473 2.073,-1.473 2,-3 0.667,0 1,-0.333 1,-1 0.667,0 1,-0.333 1,-1 0.667,0 1,-0.333 1,-1 0.667,0 1,-0.333 1,-1 0.667,0 1,-0.333 1,-1 0.667,0 1,-0.333 1,-1 0.667,0 1,-0.333 1,-1 0.667,0 1,-0.333 1,-1 0.667,0 1,-0.333 1,-1 0.992,0.172 1.658,-0.162 2,-1 0.667,0 1,-0.333 1,-1 0.667,0 1,-0.333 1,-1 0.992,0.172 1.658,-0.162 2,-1 0.667,0 1,-0.333 1,-1 1.527,0.073 2.527,-0.594 3,-2 0,-0.667 0.333,-1 1,-1 0.333,1.333 0.667,1.333 1,0 0.992,0.172 1.658,-0.162 2,-1 1.291,0.237 2.291,-0.096 3,-1 1.278,-0.282 2.278,-0.949 3,-2 z"
       id="path214" />
  </g>
  <g
     id="g220">
    <path
       style="opacity:1"
       fill="#616161"
       d="m 438.5,158.5 c 0.149,1.052 -0.017,2.052 -0.5,3 -0.74,-1.249 -0.573,-2.249 0.5,-3 z"
       id="path218" />
  </g>
  <g
     id="g224">
    <path
       style="opacity:1"
       fill="#a2a2a2"
       d="m 276.5,183.5 c -0.333,0 -0.667,0 -1,0 -0.931,-1.533 -1.598,-3.2 -2,-5 1.734,-7.033 3.567,-14.033 5.5,-21 0.638,1.109 1.138,2.275 1.5,3.5 -0.667,0.667 -1.333,1.333 -2,2 0.901,4.102 1.734,4.269 2.5,0.5 0.484,2.413 0.15,4.746 -1,7 -0.333,-1 -0.667,-2 -1,-3 -0.187,2.391 -1.02,3.558 -2.5,3.5 0.362,1.225 0.862,2.391 1.5,3.5 0.556,-2.095 1.056,-2.262 1.5,-0.5 -0.774,3.272 -1.774,6.439 -3,9.5 z"
       id="path222" />
  </g>
  <g
     id="g228">
    <path
       style="opacity:1"
       fill="#989898"
       d="m 525.5,172.5 c 0,-2.333 0,-4.667 0,-7 0.968,-2.107 1.302,-4.441 1,-7 0.829,-6.821 1.329,-13.821 1.5,-21 0.27,2.724 0.77,5.391 1.5,8 -0.624,9.223 -1.958,18.223 -4,27 z"
       id="path226" />
  </g>
  <g
     id="g232">
    <path
       style="opacity:1"
       fill="#6a6a6a"
       d="m 436.5,162.5 c 1.073,0.751 1.24,1.751 0.5,3 -0.483,-0.948 -0.649,-1.948 -0.5,-3 z"
       id="path230" />
  </g>
  <g
     id="g236">
    <path
       style="opacity:1"
       fill="#b5b5b5"
       d="m 578.5,181.5 c 0,-0.333 0,-0.667 0,-1 0.667,0 1,-0.333 1,-1 0.667,0 1,-0.333 1,-1 0.667,0 1,-0.333 1,-1 0.992,0.172 1.658,-0.162 2,-1 0.667,0 1,-0.333 1,-1 0.992,0.172 1.658,-0.162 2,-1 0.667,0 1,-0.333 1,-1 0.667,0 1,-0.333 1,-1 0.992,0.172 1.658,-0.162 2,-1 0.667,0 1,-0.333 1,-1 0.992,0.172 1.658,-0.162 2,-1 0.667,0 1,-0.333 1,-1 1.527,0.073 2.527,-0.594 3,-2 0.992,0.172 1.658,-0.162 2,-1 1.527,0.073 2.527,-0.594 3,-2 5.864,-2.763 11.864,-5.263 18,-7.5 2.079,-0.808 4.079,-0.641 6,0.5 -14.905,4.285 -28.238,11.452 -40,21.5 -2.767,1.083 -5.433,2.25 -8,3.5 z"
       id="path234" />
  </g>
  <g
     id="g240">
    <path
       style="opacity:1"
       fill="#bbbbbb"
       d="m 264.5,200.5 c -0.667,0 -1,0.333 -1,1 -0.333,0 -0.667,0 -1,0 2.822,-10.956 5.489,-21.956 8,-33 0.667,0 1,-0.333 1,-1 1.038,-2.929 2.204,-5.929 3.5,-9 -2.749,14.139 -6.249,28.139 -10.5,42 z"
       id="path238" />
  </g>
  <g
     id="g244">
    <path
       style="opacity:1"
       fill="#313131"
       d="m 434.5,173.5 c 1.025,0.397 1.192,1.063 0.5,2 -0.464,-0.594 -0.631,-1.261 -0.5,-2 z"
       id="path242" />
  </g>
  <g
     id="g248">
    <path
       style="opacity:1"
       fill="#c9c9c9"
       d="m 132.5,154.5 c 2.333,0 4.667,0 7,0 1.667,0 3.333,0 5,0 4.413,0.187 8.746,0.854 13,2 1.681,1.508 3.681,2.508 6,3 1.159,1.75 2.826,2.75 5,3 0.762,1.762 2.096,2.762 4,3 0,0.667 0.333,1 1,1 14.931,14.519 26.931,31.185 36,50 0.757,1.273 1.423,1.273 2,0 0.543,0.06 0.876,0.393 1,1 -0.825,0.886 -1.825,1.219 -3,1 -0.565,3.308 -2.565,5.308 -6,6 1.697,-1.839 3.363,-3.672 5,-5.5 -8.885,-18.889 -20.885,-35.556 -36,-50 -11.065,-10.077 -24.065,-14.243 -39,-12.5 -1.291,0.237 -2.291,-0.096 -3,-1 0.992,0.172 1.658,-0.162 2,-1 z"
       id="path246" />
  </g>
  <g
     id="g252">
    <path
       style="opacity:1"
       fill="#7f7f7f"
       d="m 433.5,176.5 c 1.073,0.751 1.24,1.751 0.5,3 -0.483,-0.948 -0.649,-1.948 -0.5,-3 z"
       id="path250" />
  </g>
  <g
     id="g256">
    <path
       style="opacity:1"
       fill="#979797"
       d="m 272.5,161.5 c -0.841,1.879 -1.175,3.879 -1,6 0,0.667 -0.333,1 -1,1 -5.159,7.784 -10.992,15.784 -17.5,24 -3.385,4.549 -7.218,8.549 -11.5,12 0.209,-1.422 0.709,-2.755 1.5,-4 9.771,-10.388 17.938,-21.388 24.5,-33 1.22,-2.481 2.886,-4.481 5,-6 z"
       id="path254" />
  </g>
  <g
     id="g260">
    <path
       style="opacity:1"
       fill="#9e9e9e"
       d="m 440.5,177.5 c 0.031,6.956 -1.136,13.956 -3.5,21 0.672,-7.037 1.839,-14.037 3.5,-21 z"
       id="path258" />
  </g>
  <g
     id="g264">
    <path
       style="opacity:1"
       fill="#929292"
       d="m 432.5,180.5 c 1.098,1.101 1.265,2.434 0.5,4 -0.49,-1.293 -0.657,-2.627 -0.5,-4 z"
       id="path262" />
  </g>
  <g
     id="g268">
    <path
       style="opacity:1"
       fill="#bdbebd"
       d="m 575.5,182.5 c 0.333,0 0.667,0 1,0 -0.185,0.67 -0.519,0.67 -1,0 z"
       id="path266" />
  </g>
  <g
     id="g272">
    <path
       style="opacity:1"
       fill="#cfd0cf"
       d="m 574.5,183.5 c 0.333,0 0.667,0 1,0 -0.185,0.67 -0.519,0.67 -1,0 z"
       id="path270" />
  </g>
  <g
     id="g276">
    <path
       style="opacity:1"
       fill="#959595"
       d="m 431.5,185.5 c 1.073,0.751 1.24,1.751 0.5,3 -0.483,-0.948 -0.649,-1.948 -0.5,-3 z"
       id="path274" />
  </g>
  <g
     id="g280">
    <path
       style="opacity:1"
       fill="#8b8b8b"
       d="m 275.5,188.5 c -0.209,1.422 -0.709,2.755 -1.5,4 -0.866,-4.307 -1.866,-4.64 -3,-1 -0.635,-2.135 -0.301,-4.135 1,-6 0.422,1.926 1.589,2.926 3.5,3 z"
       id="path278" />
  </g>
  <g
     id="g284">
    <path
       style="opacity:1"
       fill="#1f1f1f"
       d="m 93.5,188.5 c 0.073,1.527 -0.5937,2.527 -2,3 -0.073,-1.527 0.5937,-2.527 2,-3 z"
       id="path282" />
  </g>
  <g
     id="g288">
    <path
       style="opacity:1"
       fill="#777777"
       d="m 430.5,189.5 c 1.098,1.101 1.265,2.434 0.5,4 -0.49,-1.293 -0.657,-2.627 -0.5,-4 z"
       id="path286" />
  </g>
  <g
     id="g292">
    <path
       style="opacity:1"
       fill="#3c3c3c"
       d="m 429.5,194.5 c 1.025,0.397 1.192,1.063 0.5,2 -0.464,-0.594 -0.631,-1.261 -0.5,-2 z"
       id="path290" />
  </g>
  <g
     id="g296">
    <path
       style="opacity:1"
       fill="#585958"
       d="m 561.5,196.5 c 1.333,0.667 1.333,0.667 0,0 z"
       id="path294" />
  </g>
  <g
     id="g300">
    <path
       style="opacity:1"
       fill="#656665"
       d="m 560.5,197.5 c 0.333,0 0.667,0 1,0 -0.185,0.67 -0.519,0.67 -1,0 z"
       id="path298" />
  </g>
  <g
     id="g304">
    <path
       style="opacity:1"
       fill="#a3a3a3"
       d="m 573.5,183.5 c 0,0.667 0.333,1 1,1 -1.668,1.84 -3.168,3.84 -4.5,6 -0.333,-0.333 -0.667,-0.667 -1,-1 -2.86,2.002 -5.36,4.335 -7.5,7 -0.667,0 -1,0.333 -1,1 -0.667,0 -1,0.333 -1,1 -0.667,0 -1,0.333 -1,1 -0.667,0 -1,0.333 -1,1 -6.014,4.686 -11.681,9.686 -17,15 -0.149,-1.052 0.017,-2.052 0.5,-3 8.762,-8.604 17.929,-16.604 27.5,-24 0.667,0 1,-0.333 1,-1 0.667,0 1,-0.333 1,-1 0.667,0 1,-0.333 1,-1 0.333,-1 1,-1.667 2,-2 z"
       id="path302" />
  </g>
  <g
     id="g308">
    <path
       style="opacity:1"
       fill="#555655"
       d="m 559.5,198.5 c 0.333,0 0.667,0 1,0 -0.185,0.67 -0.519,0.67 -1,0 z"
       id="path306" />
  </g>
  <g
     id="g312">
    <path
       style="opacity:1"
       fill="#525352"
       d="m 558.5,199.5 c 0.333,0 0.667,0 1,0 -0.185,0.67 -0.519,0.67 -1,0 z"
       id="path310" />
  </g>
  <g
     id="g316">
    <path
       style="opacity:1"
       fill="#343534"
       d="m 557.5,200.5 c 0.333,0 0.667,0 1,0 -0.185,0.67 -0.519,0.67 -1,0 z"
       id="path314" />
  </g>
  <g
     id="g320">
    <path
       style="opacity:1"
       fill="#939393"
       d="m 521.5,183.5 c 0,-0.667 0.333,-1 1,-1 0.333,0 0.667,0 1,0 -2.461,15.011 -5.794,29.845 -10,44.5 0.07,0.765 0.403,1.265 1,1.5 -1.028,2.598 -2.028,2.598 -3,0 0,-0.333 0,-0.667 0,-1 0.904,-0.709 1.237,-1.709 1,-3 0.934,-1.068 1.268,-2.401 1,-4 1.333,-0.333 1.333,-0.667 0,-1 0.848,-3.727 1.848,-7.393 3,-11 1.333,-1 1.333,-2 0,-3 0,-0.667 0.333,-1 1,-1 1.333,-0.667 1.333,-1.333 0,-2 0.333,-0.667 0.667,-1.333 1,-2 1.333,-0.667 1.333,-1.333 0,-2 0.057,-1.109 0.39,-2.109 1,-3 1.333,-0.333 1.333,-0.667 0,-1 -0.237,-1.291 0.096,-2.291 1,-3 1.333,-0.667 1.333,-1.333 0,-2 0.057,-1.109 0.39,-2.109 1,-3 1.333,-1 1.333,-2 0,-3 z"
       id="path318" />
  </g>
  <g
     id="g324">
    <path
       style="opacity:1"
       fill="#acacac"
       d="m 511.5,196.5 c 1.333,-0.333 1.333,-0.667 0,-1 0.333,-1.333 0.667,-2.667 1,-4 1.333,-0.333 1.333,-0.667 0,-1 0.057,-1.109 0.39,-2.109 1,-3 1.333,-0.333 1.333,-0.667 0,-1 1.315,-9.24 3.482,-18.24 6.5,-27 -0.634,20.097 -3.967,39.763 -10,59 -0.654,-1.196 -1.154,-1.196 -1.5,0 0.123,7.53 -1.377,14.863 -4.5,22 0.121,-2.578 -0.046,-5.078 -0.5,-7.5 4.087,-12.035 6.753,-24.201 8,-36.5 z"
       id="path322" />
  </g>
  <g
     id="g328">
    <path
       style="opacity:1"
       fill="#adadad"
       d="m 264.5,212.5 c 1.516,-6.729 3.35,-13.396 5.5,-20 0.667,1.333 1.333,2.667 2,4 0.333,-1 0.667,-2 1,-3 -0.71,6.84 -2.377,13.507 -5,20 -0.667,-2.667 -1.333,-2.667 -2,0 -0.383,-0.556 -0.883,-0.889 -1.5,-1 z"
       id="path326" />
  </g>
  <g
     id="g332">
    <path
       style="opacity:1"
       fill="#9f9f9f"
       d="m 233.5,197.5 c -0.209,1.422 -0.709,2.755 -1.5,4 -4.033,4.368 -8.366,8.368 -13,12 -0.717,-0.544 -1.217,-1.211 -1.5,-2 3.103,-1.923 6.103,-4.09 9,-6.5 2.456,-2.437 4.79,-4.937 7,-7.5 z"
       id="path330" />
  </g>
  <g
     id="g336">
    <path
       style="opacity:1"
       fill="#a9a9a9"
       d="m 241.5,204.5 c -1.333,3.333 -3.667,5.667 -7,7 0,-0.333 0,-0.667 0,-1 0.667,0 1,-0.333 1,-1 1,-1 2,-2 3,-3 0.722,-1.051 1.722,-1.718 3,-2 z"
       id="path334" />
  </g>
  <g
     id="g340">
    <path
       style="opacity:1"
       fill="#818181"
       d="m 261.5,204.5 c 0,1.333 0,2.667 0,4 -0.904,0.709 -1.237,1.709 -1,3 -0.333,0 -0.667,0 -1,0 -0.09,-2.652 0.576,-4.985 2,-7 z"
       id="path338" />
  </g>
  <g
     id="g344">
    <path
       style="opacity:1"
       fill="#919191"
       d="m 259.5,211.5 c 0,1 0,2 0,3 -0.667,1 -1.333,2 -2,3 -0.241,-2.398 0.426,-4.398 2,-6 z"
       id="path342" />
  </g>
  <g
     id="g348">
    <path
       style="opacity:1"
       fill="#868686"
       d="m 76.5,212.5 c 0.3417,-0.838 1.0084,-1.172 2,-1 -0.2073,2.741 -1.2073,5.074 -3,7 0.1716,-0.992 -0.1618,-1.658 -1,-2 0.4175,-0.722 1.0842,-1.222 2,-1.5 -0.2284,-0.399 -0.5618,-0.565 -1,-0.5 0.4175,-0.722 1.0842,-1.222 2,-1.5 -0.2284,-0.399 -0.5618,-0.565 -1,-0.5 z"
       id="path346" />
  </g>
  <g
     id="g352">
    <path
       style="opacity:1"
       fill="#9b9b9b"
       d="m 230.5,213.5 c 0,0.667 0.333,1 1,1 -1.739,2.743 -4.073,4.743 -7,6 0,-0.333 0,-0.667 0,-1 1.639,-2.306 3.639,-4.306 6,-6 z"
       id="path350" />
  </g>
  <g
     id="g356">
    <path
       style="opacity:1"
       fill="#b7b7b7"
       d="m 264.5,212.5 c 0.559,2.179 1.226,4.346 2,6.5 -0.833,2.5 -1.667,5 -2.5,7.5 -0.333,-1 -0.667,-2 -1,-3 -0.9,3.218 -2.067,6.218 -3.5,9 -0.676,-3.69 -0.176,-7.357 1.5,-11 0.448,-1.724 1.282,-2.391 2.5,-2 -0.333,-0.667 -0.667,-1.333 -1,-2 0.667,-0.333 1.333,-0.667 2,-1 -1.205,-1.495 -1.205,-2.828 0,-4 z"
       id="path354" />
  </g>
  <g
     id="g360">
    <path
       style="opacity:1"
       fill="#878787"
       d="m 501.5,215.5 c 0.624,0.417 0.957,1.084 1,2 -0.564,2.319 -1.064,4.653 -1.5,7 -0.495,-3.031 -0.329,-6.031 0.5,-9 z"
       id="path358" />
  </g>
  <g
     id="g364">
    <path
       style="opacity:1"
       fill="#787978"
       d="m 534.5,222.5 c 1.333,0.667 1.333,0.667 0,0 z"
       id="path362" />
  </g>
  <g
     id="g368">
    <path
       style="opacity:1"
       fill="#727372"
       d="m 534.5,223.5 c -0.667,0.667 -0.667,0.667 0,0 z"
       id="path366" />
  </g>
  <g
     id="g372">
    <path
       style="opacity:1"
       fill="#b6b6b6"
       d="m 473.5,253.5 c -1.173,2.004 -2.84,3.504 -5,4.5 0.228,0.399 0.562,0.565 1,0.5 -1.027,1.694 -2.361,3.027 -4,4 -1.253,2.924 -3.253,5.257 -6,7 -0.667,0 -1,0.333 -1,1 -0.667,0 -1,0.333 -1,1 -0.667,0 -1,0.333 -1,1 -0.667,0 -1,0.333 -1,1 -0.667,0 -1,0.333 -1,1 -0.667,0 -1,0.333 -1,1 -1.333,0.333 -1.333,0.667 0,1 -1,0.667 -2,1.333 -3,2 -1.333,0.333 -1.333,0.667 0,1 -1.333,1 -2.667,2 -4,3 -0.667,0 -1,0.333 -1,1 -2.249,0.58 -3.915,1.913 -5,4 -0.667,0 -1,0.333 -1,1 -1.333,0.333 -1.333,0.667 0,1 -0.342,0.838 -1.008,1.172 -2,1 0.149,-1.052 -0.017,-2.052 -0.5,-3 -1.74,2.454 -3.907,3.954 -6.5,4.5 2.581,-3.088 5.581,-5.588 9,-7.5 3.264,-1.594 5.931,-3.927 8,-7 0.667,0 1,-0.333 1,-1 0.667,0 1,-0.333 1,-1 1.333,-0.333 1.333,-0.667 0,-1 0.333,-1 1,-1.667 2,-2 0.333,1.333 0.667,1.333 1,0 1.333,-0.333 1.333,-0.667 0,-1 0.333,-1 1,-1.667 2,-2 1.333,-1.333 2.667,-2.667 4,-4 0.667,0 1,-0.333 1,-1 0.667,0 1,-0.333 1,-1 0.667,0 1,-0.333 1,-1 1.333,-0.333 1.333,-0.667 0,-1 0.806,-1.228 1.806,-2.228 3,-3 0.667,0 1,-0.333 1,-1 1.89,-2.651 3.89,-5.318 6,-8 0.841,-1.426 1.841,-2.76 3,-4 1.333,-0.333 1.333,-0.667 0,-1 5.892,-8.098 11.059,-16.764 15.5,-26 0.984,2.295 1.817,1.961 2.5,-1 -0.333,-0.667 -0.667,-1.333 -1,-2 1.226,-3.452 2.726,-6.785 4.5,-10 0.85,1.51 1.683,3.01 2.5,4.5 -6.256,15.302 -14.589,29.802 -25,43.5 z"
       id="path370" />
  </g>
  <g
     id="g376">
    <path
       style="opacity:1"
       fill="#717271"
       d="m 529.5,227.5 c 1.333,0.667 1.333,0.667 0,0 z"
       id="path374" />
  </g>
  <g
     id="g380">
    <path
       style="opacity:1"
       fill="#929292"
       d="m 257.5,217.5 c -0.237,1.291 0.096,2.291 1,3 -2.333,6 -4.667,12 -7,18 -1.333,0.333 -1.333,0.667 0,1 -0.333,0.667 -0.667,1.333 -1,2 -0.838,0.342 -1.172,1.008 -1,2 -0.333,0 -0.667,0 -1,0 2.625,-8.879 5.625,-17.546 9,-26 z"
       id="path378" />
  </g>
  <g
     id="g384">
    <path
       style="opacity:1"
       fill="#8f908f"
       d="m 528.5,228.5 c 0.333,0 0.667,0 1,0 -0.185,0.67 -0.519,0.67 -1,0 z"
       id="path382" />
  </g>
  <g
     id="g388">
    <path
       style="opacity:1"
       fill="#828382"
       d="m 527.5,229.5 c 0.333,0 0.667,0 1,0 -0.185,0.67 -0.519,0.67 -1,0 z"
       id="path386" />
  </g>
  <g
     id="g392">
    <path
       style="opacity:1"
       fill="#373837"
       d="m 526.5,230.5 c 0.333,0 0.667,0 1,0 -0.185,0.67 -0.519,0.67 -1,0 z"
       id="path390" />
  </g>
  <g
     id="g396">
    <path
       style="opacity:1"
       fill="#5f605f"
       d="m 525.5,231.5 c 0.333,0 0.667,0 1,0 -0.185,0.67 -0.519,0.67 -1,0 z"
       id="path394" />
  </g>
  <g
     id="g400">
    <path
       style="opacity:1"
       fill="#b4b4b4"
       d="m 492.5,236.5 c 0.131,-0.739 -0.036,-1.406 -0.5,-2 -0.49,1.293 -0.657,2.627 -0.5,4 -0.874,3.035 -1.874,6.035 -3,9 0.25,-2.714 0.417,-5.381 0.5,-8 -1.699,3.421 -3.865,6.421 -6.5,9 -0.304,-0.65 -0.637,-1.317 -1,-2 3.085,-4.5 5.918,-9.167 8.5,-14 1,0 2,0 3,0 0.765,1.566 0.598,2.899 -0.5,4 z"
       id="path398" />
  </g>
  <g
     id="g404">
    <path
       style="opacity:1"
       fill="#7b7c7b"
       d="m 524.5,233.5 c 1.333,0.667 1.333,0.667 0,0 z"
       id="path402" />
  </g>
  <g
     id="g408">
    <path
       style="opacity:1"
       fill="#9a9a9a"
       d="m 69.5,228.5 c 0.3417,-0.838 1.0084,-1.172 2,-1 -0.2563,2.437 -0.9229,4.771 -2,7 0.2093,0.586 0.5426,1.086 1,1.5 -1.256,0.417 -1.9226,1.25 -2,2.5 -1.1527,0.813 -1.1527,1.813 0,3 -0.6667,0.333 -1.3333,0.667 -2,1 0.2093,0.586 0.5426,1.086 1,1.5 -3.0081,4.534 -5.3414,9.367 -7,14.5 -0.8269,-2.294 -0.4936,-4.627 1,-7 1.3333,-0.333 1.3333,-0.667 0,-1 0.0774,-1.25 0.744,-2.083 2,-2.5 -0.2284,-0.399 -0.5618,-0.565 -1,-0.5 0.3333,-0.667 0.6667,-1.333 1,-2 1.3333,-0.333 1.3333,-0.667 0,-1 0.3333,-0.667 0.6667,-1.333 1,-2 1.3333,-0.333 1.3333,-0.667 0,-1 0.5906,-0.651 1.2573,-1.318 2,-2 -0.1236,-0.607 -0.4569,-0.94 -1,-1 0.5906,-0.651 1.2573,-1.318 2,-2 -0.1236,-0.607 -0.4569,-0.94 -1,-1 0.4175,-0.722 1.0842,-1.222 2,-1.5 -0.2284,-0.399 -0.5618,-0.565 -1,-0.5 0.5906,-0.651 1.2573,-1.318 2,-2 -0.1236,-0.607 -0.4569,-0.94 -1,-1 0.4175,-0.722 1.0842,-1.222 2,-1.5 -0.2284,-0.399 -0.5618,-0.565 -1,-0.5 z"
       id="path406" />
  </g>
  <g
     id="g412">
    <path
       style="opacity:1"
       fill="#6e6f6e"
       d="m 524.5,234.5 c -0.667,0.667 -0.667,0.667 0,0 z"
       id="path410" />
  </g>
  <g
     id="g416">
    <path
       style="opacity:1"
       fill="#b0b1b0"
       d="m 523.5,235.5 c -0.667,0.667 -0.667,0.667 0,0 z"
       id="path414" />
  </g>
  <g
     id="g420">
    <path
       style="opacity:1"
       fill="#aeafae"
       d="m 522.5,236.5 c -0.667,0.667 -0.667,0.667 0,0 z"
       id="path418" />
  </g>
  <g
     id="g424">
    <path
       style="opacity:1"
       fill="#9c9d9c"
       d="m 521.5,237.5 c -0.667,0.667 -0.667,0.667 0,0 z"
       id="path422" />
  </g>
  <g
     id="g428">
    <path
       style="opacity:1"
       fill="#a6a7a6"
       d="m 519.5,238.5 c 0.333,0 0.667,0 1,0 -0.185,0.67 -0.519,0.67 -1,0 z"
       id="path426" />
  </g>
  <g
     id="g432">
    <path
       style="opacity:1"
       fill="#9e9e9e"
       d="m 203.5,230.5 c 0,0.333 0,0.667 0,1 -0.992,-0.172 -1.658,0.162 -2,1 -0.667,0 -1,0.333 -1,1 -0.992,-0.172 -1.658,0.162 -2,1 -0.667,0 -1,0.333 -1,1 -1.527,-0.073 -2.527,0.594 -3,2 -0.992,-0.172 -1.658,0.162 -2,1 -1.527,-0.073 -2.527,0.594 -3,2 -0.992,-0.172 -1.658,0.162 -2,1 -1.527,-0.073 -2.527,0.594 -3,2 -0.992,-0.172 -1.658,0.162 -2,1 -0.992,-0.172 -1.658,0.162 -2,1 -1.527,-0.073 -2.527,0.594 -3,2 -0.992,-0.172 -1.658,0.162 -2,1 -0.838,-0.342 -1.172,-1.008 -1,-2 0.992,0.172 1.658,-0.162 2,-1 0.667,-0.667 1.333,-1.333 2,-2 0.333,1.333 0.667,1.333 1,0 0.992,0.172 1.658,-0.162 2,-1 1.026,-1.353 2.359,-2.353 4,-3 -0.065,0.438 0.101,0.772 0.5,1 1.209,-1.684 2.709,-3.017 4.5,-4 3.36,-1.902 7.027,-4.236 11,-7 0.683,0.363 1.35,0.696 2,1 z"
       id="path430" />
  </g>
  <g
     id="g436">
    <path
       style="opacity:1"
       fill="#848584"
       d="m 518.5,239.5 c 0.333,0 0.667,0 1,0 -0.185,0.67 -0.519,0.67 -1,0 z"
       id="path434" />
  </g>
  <g
     id="g440">
    <path
       style="opacity:1"
       fill="#5c5d5c"
       d="m 517.5,240.5 c 0.333,0 0.667,0 1,0 -0.185,0.67 -0.519,0.67 -1,0 z"
       id="path438" />
  </g>
  <g
     id="g444">
    <path
       style="opacity:1"
       fill="#5c5d5c"
       d="m 516.5,241.5 c 0.333,0 0.667,0 1,0 -0.185,0.67 -0.519,0.67 -1,0 z"
       id="path442" />
  </g>
  <g
     id="g448">
    <path
       style="opacity:1"
       fill="#404140"
       d="m 515.5,243.5 c 1.333,0.667 1.333,0.667 0,0 z"
       id="path446" />
  </g>
  <g
     id="g452">
    <path
       style="opacity:1"
       fill="#454645"
       d="m 515.5,244.5 c -0.667,0.667 -0.667,0.667 0,0 z"
       id="path450" />
  </g>
  <g
     id="g456">
    <path
       style="opacity:1"
       fill="#d1d1d1"
       d="m 201.5,232.5 c 1.291,-0.237 2.291,0.096 3,1 -10.772,7.562 -22.105,14.395 -34,20.5 -10.231,4.689 -20.897,7.855 -32,9.5 12.872,-3.625 25.205,-8.625 37,-15 0.992,0.172 1.658,-0.162 2,-1 1.527,0.073 2.527,-0.594 3,-2 0.992,0.172 1.658,-0.162 2,-1 0.992,0.172 1.658,-0.162 2,-1 1.527,0.073 2.527,-0.594 3,-2 0.992,0.172 1.658,-0.162 2,-1 1.527,0.073 2.527,-0.594 3,-2 0.992,0.172 1.658,-0.162 2,-1 1.527,0.073 2.527,-0.594 3,-2 0.667,0 1,-0.333 1,-1 0.992,0.172 1.658,-0.162 2,-1 0.667,0 1,-0.333 1,-1 z"
       id="path454" />
  </g>
  <g
     id="g460">
    <path
       style="opacity:1"
       fill="#7e7e7e"
       d="m 248.5,243.5 c -0.172,0.992 0.162,1.658 1,2 -1.051,0.722 -1.718,1.722 -2,3 -0.333,0 -0.667,0 -1,0 -0.098,-2.053 0.569,-3.72 2,-5 z"
       id="path458" />
  </g>
  <g
     id="g464">
    <path
       style="opacity:1"
       fill="#a4a4a4"
       d="m 259.5,232.5 c -0.826,4.313 -2.16,8.48 -4,12.5 1.222,1.563 1.222,3.063 0,4.5 -1.333,0.333 -1.333,0.667 0,1 -0.383,1.908 -1.383,3.408 -3,4.5 0.228,0.399 0.562,0.565 1,0.5 -0.383,1.908 -1.383,3.408 -3,4.5 0.228,0.399 0.562,0.565 1,0.5 -1.303,2.689 -2.303,5.023 -3,7 -0.418,0.722 -1.084,1.222 -2,1.5 0.228,0.399 0.562,0.565 1,0.5 -2.783,6.296 -3.949,5.63 -3.5,-2 5.305,-12.72 9.972,-24.72 14,-36 0.383,0.556 0.883,0.889 1.5,1 z"
       id="path462" />
  </g>
  <g
     id="g468">
    <path
       style="opacity:1"
       fill="#a6a6a6"
       d="m 422.5,237.5 c 0.624,0.417 0.957,1.084 1,2 -0.935,2.971 -1.768,5.971 -2.5,9 -0.278,-0.916 -0.778,-1.582 -1.5,-2 0.86,-3.132 1.86,-6.132 3,-9 z"
       id="path466" />
  </g>
  <g
     id="g472">
    <path
       style="opacity:1"
       fill="#909190"
       d="m 514.5,245.5 c -0.667,0.667 -0.667,0.667 0,0 z"
       id="path470" />
  </g>
  <g
     id="g476">
    <path
       style="opacity:1"
       fill="#a1a1a1"
       d="m 419.5,249.5 c 0.708,3.602 0.208,7.269 -1.5,11 -0.278,-0.916 -0.778,-1.582 -1.5,-2 0.86,-3.132 1.86,-6.132 3,-9 z"
       id="path474" />
  </g>
  <g
     id="g480">
    <path
       style="opacity:1"
       fill="#b7b7b7"
       d="m 481.5,250.5 c -4.946,7.279 -10.613,13.946 -17,20 0,-0.667 0,-1.333 0,-2 5.4,-6.456 10.566,-13.122 15.5,-20 0.278,0.916 0.778,1.582 1.5,2 z"
       id="path478" />
  </g>
  <g
     id="g484">
    <path
       style="opacity:1"
       fill="#949494"
       d="m 159.5,249.5 c 0.111,0.617 0.444,1.117 1,1.5 -1.333,0.667 -2.667,1.333 -4,2 0.228,0.399 0.562,0.565 1,0.5 -1.378,0.734 -2.878,1.401 -4.5,2 -0.333,-0.667 -0.667,-1.333 -1,-2 -1.049,1.017 -2.216,1.184 -3.5,0.5 3.692,-1.515 7.359,-3.015 11,-4.5 z"
       id="path482" />
  </g>
  <g
     id="g488">
    <path
       style="opacity:1"
       fill="#7c7c7c"
       d="m 245.5,251.5 c 0,0.667 0.333,1 1,1 -0.299,1.955 -1.299,3.289 -3,4 -0.098,-2.053 0.569,-3.72 2,-5 z"
       id="path486" />
  </g>
  <g
     id="g492">
    <path
       style="opacity:1"
       fill="#a2a2a2"
       d="m 243.5,256.5 c 0,0.667 0.333,1 1,1 -0.333,0.667 -0.667,1.333 -1,2 -1.333,0.333 -1.333,0.667 0,1 -0.418,0.722 -1.084,1.222 -2,1.5 0.228,0.399 0.562,0.565 1,0.5 -1.36,2.481 -2.36,2.148 -3,-1 1.574,-1.484 2.907,-3.151 4,-5 z"
       id="path490" />
  </g>
  <g
     id="g496">
    <path
       style="opacity:1"
       fill="#a5a5a5"
       d="m 138.5,263.5 c -2.131,0.814 -4.464,1.314 -7,1.5 -7.667,0.667 -15.333,0.667 -23,0 10.01,-0.41 20.01,-0.91 30,-1.5 z"
       id="path494" />
  </g>
  <g
     id="g500">
    <path
       style="opacity:1"
       fill="#909090"
       d="m 58.5,260.5 c 0.6667,0 1.3333,0 2,0 -1.1336,2.87 -1.8003,5.87 -2,9 -0.3333,0 -0.6667,0 -1,0 -0.7216,0.418 -1.2216,1.084 -1.5,2 0.0359,-3.813 0.8692,-7.48 2.5,-11 z"
       id="path498" />
  </g>
  <g
     id="g504">
    <path
       style="opacity:1"
       fill="#454645"
       d="m 411.5,270.5 c 1.333,0.667 1.333,0.667 0,0 z"
       id="path502" />
  </g>
  <g
     id="g508">
    <path
       style="opacity:1"
       fill="#9d9d9d"
       d="m 241.5,272.5 c 1.447,1.122 2.447,2.622 3,4.5 -1.094,1.78 -2.094,3.614 -3,5.5 -0.004,-1.367 -0.67,-2.867 -2,-4.5 0.964,-1.725 1.631,-3.559 2,-5.5 z"
       id="path506" />
  </g>
  <g
     id="g512">
    <path
       style="opacity:1"
       fill="#989898"
       d="m 464.5,268.5 c 0,0.667 0,1.333 0,2 -6,8 -13,15 -21,21 -0.111,-0.617 -0.444,-1.117 -1,-1.5 7.865,-6.699 15.198,-13.865 22,-21.5 z"
       id="path510" />
  </g>
  <g
     id="g516">
    <path
       style="opacity:1"
       fill="#979797"
       d="m 416.5,261.5 c 0.624,0.417 0.957,1.084 1,2 -3.028,11.45 -6.028,22.784 -9,34 -1.333,0.667 -1.333,1.333 0,2 0.172,0.992 -0.162,1.658 -1,2 -1.333,0.667 -1.333,1.333 0,2 -0.473,1.406 -1.473,2.073 -3,2 2.148,-7.589 4.148,-15.256 6,-23 -0.18,-1.054 -0.513,-2.054 -1,-3 0.346,-1.196 0.846,-1.196 1.5,0 1.546,-6.211 3.38,-12.211 5.5,-18 z"
       id="path514" />
  </g>
  <g
     id="g520">
    <path
       style="opacity:1"
       fill="#454545"
       d="m 54.5,280.5 c 0,-0.667 0.3333,-1 1,-1 1.0735,0.751 1.2401,1.751 0.5,3 -0.2784,-0.916 -0.7784,-1.582 -1.5,-2 z"
       id="path518" />
  </g>
  <g
     id="g524">
    <path
       style="opacity:1"
       fill="#7d7d7d"
       d="m 447.5,276.5 c 0,0.333 0,0.667 0,1 -2.069,3.073 -4.736,5.406 -8,7 2.333,-3 5,-5.667 8,-8 z"
       id="path522" />
  </g>
  <g
     id="g528">
    <path
       style="opacity:1"
       fill="#828282"
       d="m 232.5,281.5 c -0.172,0.992 0.162,1.658 1,2 -1.051,0.722 -1.718,1.722 -2,3 -0.333,0 -0.667,0 -1,0 -0.098,-2.053 0.569,-3.72 2,-5 z"
       id="path526" />
  </g>
  <g
     id="g532">
    <path
       style="opacity:1"
       fill="#757575"
       d="m 445.5,283.5 c -1.333,2 -3,3.667 -5,5 0,-0.333 0,-0.667 0,-1 1.085,-2.087 2.751,-3.42 5,-4 z"
       id="path530" />
  </g>
  <g
     id="g536">
    <path
       style="opacity:1"
       fill="#a2a2a2"
       d="m 56.5,275.5 c 1.0735,0.751 1.2401,1.751 0.5,3 -1.0875,-2.432 -1.5875,-2.098 -1.5,1 -0.6667,0 -1,0.333 -1,1 0,1 0,2 0,3 -0.9345,1.068 -1.2678,2.401 -1,4 -0.9345,1.068 -1.2678,2.401 -1,4 -0.9345,1.068 -1.2678,2.401 -1,4 -0.9511,1.419 -1.2845,3.085 -1,5 -0.3333,0 -0.6667,0 -1,0 -0.4817,-0.916 -0.815,-1.916 -1,-3 1.8598,-8.413 4.0264,-16.746 6.5,-25 0.2321,1.237 0.7321,2.237 1.5,3 z"
       id="path534" />
  </g>
  <g
     id="g540">
    <path
       style="opacity:1"
       fill="#686868"
       d="m 228.5,290.5 c -0.172,0.992 0.162,1.658 1,2 -0.342,0.838 -1.008,1.172 -2,1 -0.237,-1.291 0.096,-2.291 1,-3 z"
       id="path538" />
  </g>
  <g
     id="g544">
    <path
       style="opacity:1"
       fill="#575757"
       d="m 436.5,290.5 c 0,2 -1,3 -3,3 0.667,-1.333 1.667,-2.333 3,-3 z"
       id="path542" />
  </g>
  <g
     id="g548">
    <path
       style="opacity:1"
       fill="#a8a8a8"
       d="m 243.5,291.5 c 4.476,10.932 7.642,22.265 9.5,34 -3.041,-11.171 -6.541,-22.171 -10.5,-33 0.667,0 1,-0.333 1,-1 z"
       id="path546" />
  </g>
  <g
     id="g552">
    <path
       style="opacity:1"
       fill="#9a9a9a"
       d="m 237.5,283.5 c 0.06,-0.543 0.393,-0.876 1,-1 2.317,2.099 2.483,4.432 0.5,7 -3.394,7.788 -7.061,15.455 -11,23 -1,0.667 -2,1.333 -3,2 3.501,-7.695 6.501,-15.695 9,-24 2.039,-1.757 3.539,-3.924 4.5,-6.5 -0.228,-0.399 -0.562,-0.565 -1,-0.5 z"
       id="path550" />
  </g>
  <g
     id="g556">
    <path
       style="opacity:1"
       fill="#9a9a9a"
       d="m 473.5,293.5 c -3.298,4.632 -6.964,8.966 -11,13 0,-0.667 0,-1.333 0,-2 1.333,-1.667 2.667,-3.333 4,-5 0.667,0 1,-0.333 1,-1 0.667,0 1,-0.333 1,-1 0.667,0 1,-0.333 1,-1 0.667,0 1,-0.333 1,-1 0.722,-1.051 1.722,-1.718 3,-2 z"
       id="path554" />
  </g>
  <g
     id="g560">
    <path
       style="opacity:1"
       fill="#aeaeae"
       d="m 451.5,302.5 c -0.792,2.245 -2.125,2.578 -4,1 0,-0.667 -0.333,-1 -1,-1 -1.062,-1.075 -1.062,-2.075 0,-3 1.86,0.76 3.527,1.76 5,3 z"
       id="path558" />
  </g>
  <g
     id="g564">
    <path
       style="opacity:1"
       fill="#afafaf"
       d="m 426.5,306.5 c -0.333,-1.333 -0.667,-1.333 -1,0 -3.333,2 -6.667,4 -10,6 -1.098,-0.897 -1.098,-1.73 0,-2.5 5.019,-3.327 10.019,-6.327 15,-9 -1.249,1.98 -2.582,3.813 -4,5.5 z"
       id="path562" />
  </g>
  <g
     id="g568">
    <path
       style="opacity:1"
       fill="#acacac"
       d="m 438.5,303.5 c -0.203,1.89 0.463,3.39 2,4.5 1.585,0.085 2.918,0.251 4,0.5 -2.265,1.147 -4.598,1.314 -7,0.5 -0.752,-0.671 -1.086,-1.504 -1,-2.5 1.333,-0.333 1.333,-0.667 0,-1 0.333,-1 1,-1.667 2,-2 z"
       id="path566" />
  </g>
  <g
     id="g572">
    <path
       style="opacity:1"
       fill="#626262"
       d="m 222.5,303.5 c 0,1 0,2 0,3 -0.838,0.342 -1.172,1.008 -1,2 -0.838,0.342 -1.172,1.008 -1,2 -0.838,0.342 -1.172,1.008 -1,2 -0.333,0 -0.667,0 -1,0 0.542,-3.412 1.875,-6.412 4,-9 z"
       id="path570" />
  </g>
  <g
     id="g576">
    <path
       style="opacity:1"
       fill="#9e9e9e"
       d="m 49.5,303.5 c -2.254,8.269 -4.254,16.602 -6,25 0.218,-9.303 1.718,-18.636 4.5,-28 0.2321,1.237 0.7321,2.237 1.5,3 z"
       id="path574" />
  </g>
  <g
     id="g580">
    <path
       style="opacity:1"
       fill="#898989"
       d="m 430.5,309.5 c 1.312,-0.042 2.646,-0.042 4,0 1.205,1.077 1.872,2.41 2,4 -1.517,-0.011 -2.684,-0.677 -3.5,-2 -0.278,0.916 -0.778,1.582 -1.5,2 0.268,-1.599 -0.066,-2.932 -1,-4 z"
       id="path578" />
  </g>
  <g
     id="g584">
    <path
       style="opacity:1"
       fill="#bebebe"
       d="m 246.5,281.5 c 6.379,16.499 11.379,33.499 15,51 -4.9,-15.738 -9.9,-31.572 -15,-47.5 -0.336,-1.03 -1.003,-1.53 -2,-1.5 0.667,-0.667 1.333,-1.333 2,-2 z"
       id="path582" />
  </g>
  <g
     id="g588">
    <path
       style="opacity:1"
       fill="#818181"
       d="m 218.5,312.5 c 0,0.667 0,1.333 0,2 -0.838,0.342 -1.172,1.008 -1,2 -0.333,0 -0.667,0 -1,0 -0.271,-1.88 0.396,-3.213 2,-4 z"
       id="path586" />
  </g>
  <g
     id="g592">
    <path
       style="opacity:1"
       fill="#adadad"
       d="m 313.5,324.5 c -0.333,0 -0.667,0 -1,0 -0.841,-1.879 -1.175,-3.879 -1,-6 1.333,-0.333 1.333,-0.667 0,-1 0,-0.667 -0.333,-1 -1,-1 -1.074,-1.385 -2.407,-2.551 -4,-3.5 3.084,-0.225 5.75,0.775 8,3 0.185,2.762 -0.148,5.595 -1,8.5 z"
       id="path590" />
  </g>
  <g
     id="g596">
    <path
       style="opacity:1"
       fill="#e4e4e4"
       d="m 310.5,316.5 c 0.667,0 1,0.333 1,1 0,0.333 0,0.667 0,1 -0.175,2.121 0.159,4.121 1,6 0,0.333 0,0.667 0,1 -0.667,0 -1,0.333 -1,1 -0.992,-0.172 -1.658,0.162 -2,1 -2.333,0 -4.667,0 -7,0 0,-0.667 -0.333,-1 -1,-1 -0.333,0 -0.667,0 -1,0 -1.7,-1.71 -3.033,-3.71 -4,-6 1.024,-1.352 2.024,-2.685 3,-4 3.75,-0.583 7.417,-0.583 11,0 z"
       id="path594" />
  </g>
  <g
     id="g600">
    <path
       style="opacity:1"
       fill="#919191"
       d="m 384.5,316.5 c 0,-0.333 0,-0.667 0,-1 3,0 6,0 9,0 0,0.333 0,0.667 0,1 -3.056,1.088 -6.056,1.088 -9,0 z"
       id="path598" />
  </g>
  <g
     id="g604">
    <path
       style="opacity:1"
       fill="#787878"
       d="m 216.5,316.5 c 0,0.667 0,1.333 0,2 -0.838,0.342 -1.172,1.008 -1,2 -0.333,0 -0.667,0 -1,0 -0.271,-1.88 0.396,-3.213 2,-4 z"
       id="path602" />
  </g>
  <g
     id="g608">
    <path
       style="opacity:1"
       fill="#6f6f6f"
       d="m 372.5,317.5 c 1.333,0 2.667,0 4,0 0.545,-3.672 0.878,-3.338 1,1 -1.915,0.284 -3.581,-0.049 -5,-1 z"
       id="path606" />
  </g>
  <g
     id="g612">
    <path
       style="opacity:1"
       fill="#bcbcbc"
       d="m 474.5,303.5 c 0.342,-0.838 1.008,-1.172 2,-1 0.689,1.274 1.523,1.274 2.5,0 0.456,1.244 -0.044,2.077 -1.5,2.5 0.228,0.399 0.562,0.565 1,0.5 -1.754,3.844 -3.754,7.51 -6,11 -1.333,0.333 -1.333,0.667 0,1 0.172,0.992 -0.162,1.658 -1,2 -0.342,0.838 -1.008,1.172 -2,1 0.149,-1.052 -0.017,-2.052 -0.5,-3 -0.419,1.172 -1.085,2.172 -2,3 0.284,-3.399 1.784,-6.232 4.5,-8.5 -0.228,-0.399 -0.562,-0.565 -1,-0.5 0.418,-0.722 1.084,-1.222 2,-1.5 -0.228,-0.399 -0.562,-0.565 -1,-0.5 0.418,-0.722 1.084,-1.222 2,-1.5 -0.228,-0.399 -0.562,-0.565 -1,-0.5 0.418,-0.722 1.084,-1.222 2,-1.5 -0.228,-0.399 -0.562,-0.565 -1,-0.5 0.418,-0.722 1.084,-1.222 2,-1.5 -0.228,-0.399 -0.562,-0.565 -1,-0.5 z"
       id="path610" />
  </g>
  <g
     id="g616">
    <path
       style="opacity:1"
       fill="#aeaeae"
       d="m 436.5,324.5 c 2.998,-3.167 5.831,-6.5 8.5,-10 0.914,1.154 1.747,0.987 2.5,-0.5 -0.951,-0.718 -1.117,-1.551 -0.5,-2.5 2.333,-2.667 4.667,-5.333 7,-8 0.914,1.154 1.747,0.987 2.5,-0.5 -0.951,-0.718 -1.117,-1.551 -0.5,-2.5 1.982,-0.594 3.816,-1.76 5.5,-3.5 -0.951,-0.718 -1.117,-1.551 -0.5,-2.5 1.145,-1.136 2.312,-2.136 3.5,-3 7.293,-9.073 14.459,-17.74 21.5,-26 0.667,1.333 0.667,2.667 0,4 -17.097,21.863 -34.43,43.53 -52,65 0.032,-2.078 -0.134,-4.078 -0.5,-6 1.185,-1.353 2.519,-2.52 4,-3.5 -0.228,-0.399 -0.562,-0.565 -1,-0.5 z"
       id="path614" />
  </g>
  <g
     id="g620">
    <path
       style="opacity:1"
       fill="#a0a0a0"
       d="m 382.5,320.5 c -1.333,0.333 -2.667,0.667 -4,1 -0.426,-1.028 -0.426,-2.361 0,-4 1.808,-0.009 3.475,0.491 5,1.5 -0.556,0.383 -0.889,0.883 -1,1.5 z"
       id="path618" />
  </g>
  <g
     id="g624">
    <path
       style="opacity:1"
       fill="#b4b4b4"
       d="m 462.5,306.5 c -5.629,7.629 -11.629,14.963 -18,22 -0.803,-0.923 -0.97,-1.923 -0.5,-3 5.061,-5.888 10.228,-11.555 15.5,-17 0.667,0 1,-0.333 1,-1 0.667,-0.333 1.333,-0.667 2,-1 z"
       id="path622" />
  </g>
  <g
     id="g628">
    <path
       style="opacity:1"
       fill="#a5a5a5"
       d="m 299.5,316.5 c -0.976,1.315 -1.976,2.648 -3,4 0.967,2.29 2.3,4.29 4,6 0.333,1.333 0.667,1.333 1,0 0.667,0 1,0.333 1,1 0,0.333 0,0.667 0,1 -4.064,-0.893 -6.73,-3.393 -8,-7.5 0.541,-3.411 2.208,-4.911 5,-4.5 z"
       id="path626" />
  </g>
  <g
     id="g632">
    <path
       style="opacity:1"
       fill="#bfbfbf"
       d="m 354.5,326.5 c -0.996,0.086 -1.829,-0.248 -2.5,-1 -0.914,-2.164 -2.081,-4.164 -3.5,-6 -1.753,2.505 -3.253,5.171 -4.5,8 -0.671,0.752 -1.504,1.086 -2.5,1 2.322,-3.972 4.655,-7.972 7,-12 2.011,3.361 4.011,6.694 6,10 z"
       id="path630" />
  </g>
  <g
     id="g636">
    <path
       style="opacity:1"
       fill="#ababab"
       d="m 213.5,336.5 c 2.962,-7.257 6.462,-14.257 10.5,-21 -0.755,3.693 -2.255,7.193 -4.5,10.5 0.333,0.333 0.667,0.667 1,1 -2.067,1.657 -3.4,3.324 -4,5 0.923,2.048 0.423,3.881 -1.5,5.5 -0.383,-0.556 -0.883,-0.889 -1.5,-1 z"
       id="path634" />
  </g>
  <g
     id="g640">
    <path
       style="opacity:1"
       fill="#686868"
       d="m 213.5,322.5 c 0,0.667 0,1.333 0,2 -0.838,0.342 -1.172,1.008 -1,2 -0.333,0 -0.667,0 -1,0 -0.271,-1.88 0.396,-3.213 2,-4 z"
       id="path638" />
  </g>
  <g
     id="g644">
    <path
       style="opacity:1"
       fill="#9f9f9f"
       d="m 431.5,313.5 c -0.454,2.241 -0.454,4.241 0,6 0.667,0 1,0.333 1,1 -1.333,0.667 -1.333,1.333 0,2 0.149,1.052 -0.017,2.052 -0.5,3 -0.498,-2.044 -1.665,-3.378 -3.5,-4 -1.144,-0.683 -1.144,-0.349 0,1 -0.296,3.593 -1.296,4.259 -3,2 0.629,-2.897 1.629,-5.564 3,-8 0.333,4 0.667,4 1,0 0.667,-1 1.333,-2 2,-3 z"
       id="path642" />
  </g>
  <g
     id="g648">
    <path
       style="opacity:1"
       fill="#828382"
       d="m 313.5,324.5 c 1.333,0.667 1.333,0.667 0,0 z"
       id="path646" />
  </g>
  <g
     id="g652">
    <path
       style="opacity:1"
       fill="#a0a0a0"
       d="m 476.5,326.5 c -1.333,1 -1.333,2 0,3 0.237,1.291 -0.096,2.291 -1,3 -1.333,1.333 -1.333,2.667 0,4 -0.333,0.667 -0.667,1.333 -1,2 -1.333,1.333 -1.333,2.667 0,4 -0.333,0.667 -0.667,1.333 -1,2 -1.333,1.333 -1.333,2.667 0,4 0.268,1.599 -0.066,2.932 -1,4 0.237,-1.291 -0.096,-2.291 -1,-3 0.788,-5.031 0.788,-10.031 0,-15 0.167,-0.667 0.333,-1.333 0.5,-2 0.333,1 0.667,2 1,3 0.781,-3.334 1.114,-6.667 1,-10 -1.859,3.064 -3.692,6.064 -5.5,9 -0.633,-0.38 -1.3,-0.713 -2,-1 2.5,-4.333 5,-8.667 7.5,-13 0.419,1.172 1.085,2.172 2,3 0.333,-1.667 0.667,-3.333 1,-5 0.654,-1.196 1.154,-1.196 1.5,0 -0.669,2.697 -1.336,5.363 -2,8 z"
       id="path650" />
  </g>
  <g
     id="g656">
    <path
       style="opacity:1"
       fill="#4e4f4e"
       d="m 312.5,325.5 c 0.333,0 0.667,0 1,0 -0.185,0.67 -0.519,0.67 -1,0 z"
       id="path654" />
  </g>
  <g
     id="g660">
    <path
       style="opacity:1"
       fill="#aaabaa"
       d="m 311.5,326.5 c 0.333,0 0.667,0 1,0 -0.185,0.67 -0.519,0.67 -1,0 z"
       id="path658" />
  </g>
  <g
     id="g664">
    <path
       style="opacity:1"
       fill="#757575"
       d="m 211.5,326.5 c 0,0.667 0,1.333 0,2 -0.667,0.333 -1.333,0.667 -2,1 -0.073,-1.527 0.594,-2.527 2,-3 z"
       id="path662" />
  </g>
  <g
     id="g668">
    <path
       style="opacity:1"
       fill="#747574"
       d="m 309.5,327.5 c 1.333,0.667 1.333,0.667 0,0 z"
       id="path666" />
  </g>
  <g
     id="g672">
    <path
       style="opacity:1"
       fill="#939393"
       d="m 302.5,328.5 c 1.699,-0.16 3.366,0.006 5,0.5 -1.887,0.78 -3.554,0.613 -5,-0.5 z"
       id="path670" />
  </g>
  <g
     id="g676">
    <path
       style="opacity:1"
       fill="#353535"
       d="m 398.5,329.5 c -0.61,0.891 -0.943,1.891 -1,3 -1.385,-1.447 -1.052,-2.447 1,-3 z"
       id="path674" />
  </g>
  <g
     id="g680">
    <path
       style="opacity:1"
       fill="#5c5c5c"
       d="m 209.5,329.5 c -0.172,0.992 0.162,1.658 1,2 -0.667,0.667 -1.333,1.333 -2,2 -0.333,0 -0.667,0 -1,0 0.16,-1.653 0.826,-2.986 2,-4 z"
       id="path678" />
  </g>
  <g
     id="g684">
    <path
       style="opacity:1"
       fill="#c8c8c8"
       d="m 349.5,331.5 c -0.172,0.992 0.162,1.658 1,2 0.667,0 1,0.333 1,1 0,0.333 0,0.667 0,1 -0.246,3.828 1.754,6.495 6,8 0,0.667 0.333,1 1,1 1.599,-0.268 2.932,0.066 4,1 -6.08,0.21 -10.914,-2.124 -14.5,-7 -2.389,5.054 -5.555,9.554 -9.5,13.5 -3.992,1.177 -5.658,-0.323 -5,-4.5 0.996,0.086 1.829,-0.248 2.5,-1 0.278,0.916 0.778,1.582 1.5,2 0,0.333 0,0.667 0,1 1.406,-0.473 2.073,-1.473 2,-3 0.667,0 1,-0.333 1,-1 0.838,-0.342 1.172,-1.008 1,-2 1.882,-0.721 2.215,-1.721 1,-3 0,-0.667 0.333,-1 1,-1 0.667,0 1,-0.333 1,-1 0.838,-0.342 1.172,-1.008 1,-2 0.838,-0.342 1.172,-1.008 1,-2 0.838,-0.342 1.172,-1.008 1,-2 0.667,-0.333 1.333,-0.667 2,-1 z m -10,15 c 0.073,1.527 -0.594,2.527 -2,3 0,-0.333 0,-0.667 0,-1 0.333,-1 1,-1.667 2,-2 z"
       id="path682" />
  </g>
  <g
     id="g688">
    <path
       style="opacity:1"
       fill="#d0d0d0"
       d="m 261.5,332.5 c 0.934,1.068 1.268,2.401 1,4 -0.934,-1.068 -1.268,-2.401 -1,-4 z"
       id="path686" />
  </g>
  <g
     id="g692">
    <path
       style="opacity:1"
       fill="#b0b0b0"
       d="m 441.5,331.5 c -1.982,3.31 -4.315,6.31 -7,9 -2.235,-0.748 -1.902,-1.581 1,-2.5 -0.228,-0.399 -0.562,-0.565 -1,-0.5 2.333,-2.503 4.499,-5.169 6.5,-8 0.464,0.594 0.631,1.261 0.5,2 z"
       id="path690" />
  </g>
  <g
     id="g696">
    <path
       style="opacity:1"
       fill="#9e9e9e"
       d="m 262.5,336.5 c 1.098,1.101 1.265,2.434 0.5,4 -0.49,-1.293 -0.657,-2.627 -0.5,-4 z"
       id="path694" />
  </g>
  <g
     id="g700">
    <path
       style="opacity:1"
       fill="#6a6a6a"
       d="m 204.5,339.5 c 0,0.667 0,1.333 0,2 -0.838,0.342 -1.172,1.008 -1,2 -0.667,0.333 -1.333,0.667 -2,1 0.25,-2.174 1.25,-3.841 3,-5 z"
       id="path698" />
  </g>
  <g
     id="g704">
    <path
       style="opacity:1"
       fill="#8a8a8a"
       d="m 373.5,334.5 c -2.114,5.237 -5.781,8.904 -11,11 -1.068,-0.934 -2.401,-1.268 -4,-1 0,-0.333 0,-0.667 0,-1 2.921,0.217 5.587,-0.449 8,-2 0.667,0 1,-0.333 1,-1 1.741,-2.477 3.241,-5.144 4.5,-8 0.278,0.916 0.778,1.582 1.5,2 z"
       id="path702" />
  </g>
  <g
     id="g708">
    <path
       style="opacity:1"
       fill="#7b7b7b"
       d="m 263.5,341.5 c 1.025,0.397 1.192,1.063 0.5,2 -0.464,-0.594 -0.631,-1.261 -0.5,-2 z"
       id="path706" />
  </g>
  <g
     id="g712">
    <path
       style="opacity:1"
       fill="#949494"
       d="m 465.5,338.5 c -0.628,2.59 -1.795,4.923 -3.5,7 -3.667,4.333 -7.333,8.667 -11,13 -3.128,2.974 -6.628,5.307 -10.5,7 -1.238,-0.31 -1.238,-0.81 0,-1.5 6.487,-4.323 12.154,-9.49 17,-15.5 0.667,0 1,-0.333 1,-1 1.913,-3.762 4.079,-7.429 6.5,-11 0.464,0.594 0.631,1.261 0.5,2 z"
       id="path710" />
  </g>
  <g
     id="g716">
    <path
       style="opacity:1"
       fill="#b0b0b0"
       d="m 213.5,336.5 c -0.086,0.996 0.248,1.829 1,2.5 -4.151,7.185 -7.985,14.018 -11.5,20.5 -1.011,0.837 -2.178,1.17 -3.5,1 4.682,-8.035 9.348,-16.035 14,-24 z"
       id="path714" />
  </g>
  <g
     id="g720">
    <path
       style="opacity:1"
       fill="#6a6a6a"
       d="m 198.5,350.5 c 0,0.667 0,1.333 0,2 -0.667,0.333 -1.333,0.667 -2,1 -0.073,-1.527 0.594,-2.527 2,-3 z"
       id="path718" />
  </g>
  <g
     id="g724">
    <path
       style="opacity:1"
       fill="#a4a4a4"
       d="m 328.5,350.5 c 0,1.333 -0.667,2 -2,2 0.333,-1 1,-1.667 2,-2 z"
       id="path722" />
  </g>
  <g
     id="g728">
    <path
       style="opacity:1"
       fill="#979797"
       d="m 326.5,352.5 c 0,2 -1,3 -3,3 0.667,-1.333 1.667,-2.333 3,-3 z"
       id="path726" />
  </g>
  <g
     id="g732">
    <path
       style="opacity:1"
       fill="#d0d1d0"
       d="m 323.5,355.5 c -0.667,0.667 -0.667,0.667 0,0 z"
       id="path730" />
  </g>
  <g
     id="g736">
    <path
       style="opacity:1"
       fill="#858585"
       d="m 195.5,355.5 c 0,0.667 0,1.333 0,2 -0.667,0.333 -1.333,0.667 -2,1 -0.073,-1.527 0.594,-2.527 2,-3 z"
       id="path734" />
  </g>
  <g
     id="g740">
    <path
       style="opacity:1"
       fill="#d6d7d6"
       d="m 322.5,356.5 c -0.667,0.667 -0.667,0.667 0,0 z"
       id="path738" />
  </g>
  <g
     id="g744">
    <path
       style="opacity:1"
       fill="#c5c5c5"
       d="m 41.5,345.5 c -2.5175,14.246 -3.1842,28.579 -2,43 -2.4828,-14.715 -2.3162,-29.715 0.5,-45 0.2784,0.916 0.7784,1.582 1.5,2 z"
       id="path742" />
  </g>
  <g
     id="g748">
    <path
       style="opacity:1"
       fill="#5c5c5c"
       d="m 319.5,358.5 c 0.342,-0.838 1.008,-1.172 2,-1 -0.342,0.838 -1.008,1.172 -2,1 z"
       id="path746" />
  </g>
  <g
     id="g752">
    <path
       style="opacity:1"
       fill="#3b3c3b"
       d="m 319.5,358.5 c -0.667,0.667 -0.667,0.667 0,0 z"
       id="path750" />
  </g>
  <g
     id="g756">
    <path
       style="opacity:1"
       fill="#aaaaaa"
       d="m 471.5,349.5 c -0.295,2.235 0.039,4.235 1,6 0.172,0.992 -0.162,1.658 -1,2 -1.28,0.648 -1.28,1.981 0,4 0.237,1.291 -0.096,2.291 -1,3 -0.61,-2.35 -0.944,-2.017 -1,1 -0.667,0 -1,-0.333 -1,-1 0.079,-1.43 -0.254,-2.764 -1,-4 2.066,-3.499 3.4,-7.165 4,-11 z"
       id="path754" />
  </g>
  <g
     id="g760">
    <path
       style="opacity:1"
       fill="#393939"
       d="m 411.5,360.5 c 0.622,-1.127 1.455,-2.127 2.5,-3 0.519,1.989 -0.314,2.989 -2.5,3 z"
       id="path758" />
  </g>
  <g
     id="g764">
    <path
       style="opacity:1"
       fill="#9e9e9e"
       d="m 402.5,318.5 c 0.667,0 1,0.333 1,1 0,0.667 -0.333,1 -1,1 -1.333,1 -1.333,2 0,3 0,0.667 -0.333,1 -1,1 -1.333,1 -1.333,2 0,3 0,0.667 -0.333,1 -1,1 -0.904,0.709 -1.237,1.709 -1,3 -0.934,1.068 -1.268,2.401 -1,4 -0.934,1.068 -1.268,2.401 -1,4 -1.333,1 -1.333,2 0,3 0.172,0.992 -0.162,1.658 -1,2 -1.007,-0.048 -1.34,0.952 -1,3 -2.091,4.691 -3.424,9.691 -4,15 -2.031,5.266 -3.698,10.766 -5,16.5 0.07,0.765 0.403,1.265 1,1.5 -0.962,2.486 -1.795,2.486 -2.5,0 -0.417,1.256 -1.25,1.923 -2.5,2 4.624,-16.221 8.958,-32.221 13,-48 0.743,-0.682 1.409,-1.349 2,-2 0.057,-1.109 0.39,-2.109 1,-3 0.982,-3.263 1.649,-6.597 2,-10 -2.121,-0.175 -4.121,0.159 -6,1 -0.111,-0.617 -0.444,-1.117 -1,-1.5 2.371,-0.735 4.705,-1.568 7,-2.5 1.196,0.346 1.196,0.846 0,1.5 0.594,0.464 1.261,0.631 2,0.5 z"
       id="path762" />
  </g>
  <g
     id="g768">
    <path
       style="opacity:1"
       fill="#656565"
       d="m 431.5,363.5 c 0,-0.333 0,-0.667 0,-1 1.333,0 2.667,0 4,0 0.172,0.992 -0.162,1.658 -1,2 -0.709,-0.904 -1.709,-1.237 -3,-1 z"
       id="path766" />
  </g>
  <g
     id="g772">
    <path
       style="opacity:1"
       fill="#676767"
       d="m 510.5,365.5 c -1.256,0.039 -2.256,-0.461 -3,-1.5 1.498,-0.585 2.498,-0.085 3,1.5 z"
       id="path770" />
  </g>
  <g
     id="g776">
    <path
       style="opacity:1"
       fill="#676767"
       d="m 468.5,364.5 c 0,0.667 0.333,1 1,1 -0.172,0.992 0.162,1.658 1,2 0,0.667 -0.333,1 -1,1 -0.333,0 -0.667,0 -1,0 0.131,-0.739 -0.036,-1.406 -0.5,-2 -0.333,1.667 -0.667,3.333 -1,5 -0.383,-0.556 -0.883,-0.889 -1.5,-1 0.269,-2.515 1.269,-4.515 3,-6 z"
       id="path774" />
  </g>
  <g
     id="g780">
    <path
       style="opacity:1"
       fill="#838383"
       d="m 189.5,365.5 c 0,0.667 0,1.333 0,2 -0.667,0.333 -1.333,0.667 -2,1 -0.073,-1.527 0.594,-2.527 2,-3 z"
       id="path778" />
  </g>
  <g
     id="g784">
    <path
       style="opacity:1"
       fill="#848484"
       d="m 424.5,360.5 c -1.333,0.333 -1.333,0.667 0,1 1.532,2.021 3.532,3.521 6,4.5 2.869,0.009 5.536,0.176 8,0.5 -7.609,3.044 -13.276,0.711 -17,-7 0.79,-1.109 1.29,-2.442 1.5,-4 0.352,1.747 0.852,3.414 1.5,5 z"
       id="path782" />
  </g>
  <g
     id="g788">
    <path
       style="opacity:1"
       fill="#7b7b7b"
       d="m 186.5,370.5 c 0,0.667 0,1.333 0,2 -0.667,0.333 -1.333,0.667 -2,1 -0.073,-1.527 0.594,-2.527 2,-3 z"
       id="path786" />
  </g>
  <g
     id="g792">
    <path
       style="opacity:1"
       fill="#999999"
       d="m 413.5,364.5 c 0.333,0 0.667,0 1,0 -4.984,6.98 -10.317,13.646 -16,20 -0.667,0 -1,-0.333 -1,-1 0.667,-1.333 1.667,-2.333 3,-3 0.667,0 1,-0.333 1,-1 3.247,-5.583 7.247,-10.583 12,-15 z"
       id="path790" />
  </g>
  <g
     id="g796">
    <path
       style="opacity:1"
       fill="#a3a3a3"
       d="m 468.5,368.5 c 0,1.667 0,3.333 0,5 -0.961,1.765 -1.295,3.765 -1,6 -0.961,1.765 -1.295,3.765 -1,6 -0.667,2 -1.333,4 -2,6 0.065,-0.438 -0.101,-0.772 -0.5,-1 -0.122,1.937 -0.955,3.27 -2.5,4 1.544,-7.931 2.877,-15.931 4,-24 0.617,0.111 1.117,0.444 1.5,1 0.333,-1.667 0.667,-3.333 1,-5 0.464,0.594 0.631,1.261 0.5,2 z"
       id="path794" />
  </g>
  <g
     id="g800">
    <path
       style="opacity:1"
       fill="#cdcdcd"
       d="m 510.5,365.5 c 3.031,1.694 4.864,4.36 5.5,8 2.053,12.859 -2.28,22.859 -13,30 -0.195,1.319 -0.028,2.653 0.5,4 -1.29,-0.558 -2.123,-1.558 -2.5,-3 -0.671,0.752 -1.504,1.086 -2.5,1 0,-0.667 -0.333,-1 -1,-1 1.051,-0.722 1.718,-1.722 2,-3 0.667,-0.333 1.333,-0.667 2,-1 0.397,1.025 1.063,1.192 2,0.5 11.136,-10.181 13.47,-22.014 7,-35.5 z"
       id="path798" />
  </g>
  <g
     id="g804">
    <path
       style="opacity:1"
       fill="#9f9f9f"
       d="m 183.5,387.5 c 4.873,-9.045 10.373,-17.712 16.5,-26 0.5,0.167 1,0.333 1.5,0.5 -4.708,7.917 -9.541,15.75 -14.5,23.5 -1.113,0.805 -2.279,1.472 -3.5,2 z"
       id="path802" />
  </g>
  <g
     id="g812">
    <path
       style="opacity:1"
       fill="#acacac"
       d="m 37.5,409.5 c -2.0387,-4.707 -2.872,-9.707 -2.5,-15 1.267,4.935 2.1003,9.935 2.5,15 z"
       id="path810" />
  </g>
  <g
     id="g816">
    <path
       style="opacity:1"
       fill="#c6c6c6"
       d="m 464.5,391.5 c -0.165,3.018 0.002,6.018 0.5,9 0.748,2.251 2.248,3.584 4.5,4 0.342,0.838 1.008,1.172 2,1 6.517,1.185 13.184,1.185 20,0 0.709,0.904 1.709,1.237 3,1 -8.84,2.244 -17.84,2.411 -27,0.5 -4.563,-2.959 -6.563,-7.126 -6,-12.5 1.545,-0.73 2.378,-2.063 2.5,-4 0.399,0.228 0.565,0.562 0.5,1 z"
       id="path814" />
  </g>
  <g
     id="g820">
    <path
       style="opacity:1"
       fill="#bcbcbc"
       d="m 503.5,407.5 c 0.838,0.342 1.172,1.008 1,2 -0.838,-0.342 -1.172,-1.008 -1,-2 z"
       id="path818" />
  </g>
  <g
     id="g824">
    <path
       style="opacity:1"
       fill="#ecedec"
       d="m 504.5,409.5 c 0.667,0 1,0.333 1,1 -0.333,-0.333 -0.667,-0.667 -1,-1 z"
       id="path822" />
  </g>
  <g
     id="g828">
    <path
       style="opacity:1"
       fill="#8d8d8d"
       d="m 505.5,410.5 c 0.838,0.342 1.172,1.008 1,2 -0.838,-0.342 -1.172,-1.008 -1,-2 z"
       id="path826" />
  </g>
  <g
     id="g832">
    <path
       style="opacity:1"
       fill="#9c9c9c"
       d="m 37.5,409.5 c 1.9053,3.716 3.2387,7.716 4,12 -2.3061,-3.585 -3.6394,-7.585 -4,-12 z"
       id="path830" />
  </g>
  <g
     id="g836">
    <path
       style="opacity:1"
       fill="#9d9e9d"
       d="m 506.5,412.5 c 1.333,0.667 1.333,0.667 0,0 z"
       id="path834" />
  </g>
  <g
     id="g840">
    <path
       style="opacity:1"
       fill="#dddddd"
       d="m 41.5,421.5 c 2.8886,5.435 6.0553,10.768 9.5,16 6.7881,8.202 14.9547,14.036 24.5,17.5 -0.6258,0.75 -1.1258,1.584 -1.5,2.5 -4.5268,-4.344 -9.0268,-5.677 -13.5,-4 -10.5606,-7.791 -18.2273,-17.791 -23,-30 -0.0654,-0.438 0.1012,-0.772 0.5,-1 0.3333,0.667 0.6667,1.333 1,2 0.6979,-1.191 1.5313,-2.191 2.5,-3 z"
       id="path838" />
  </g>
  <g
     id="g844">
    <path
       style="opacity:1"
       fill="#d9d9d9"
       d="m 157.5,427.5 c -3.063,4.572 -6.73,8.739 -11,12.5 -4,3.333 -8,6.667 -12,10 -1.245,0.791 -2.578,1.291 -4,1.5 -0.739,0.131 -1.406,-0.036 -2,-0.5 1.955,-0.953 3.622,-2.287 5,-4 -1.547,-0.333 -2.88,0.167 -4,1.5 -0.236,-0.747 -0.57,-1.58 -1,-2.5 1.26,-1.113 2.427,-1.28 3.5,-0.5 2.24,-1.528 3.907,-3.528 5,-6 0.333,0.333 0.667,0.667 1,1 2.918,-4.922 6.585,-9.256 11,-13 0.333,0.667 0.667,1.333 1,2 0.216,-1.884 0.883,-3.551 2,-5 0.333,0.333 0.667,0.667 1,1 1.333,-1.333 2.667,-2.667 4,-4 -0.195,2.245 -1.362,4.078 -3.5,5.5 1.496,0.507 2.663,0.007 3.5,-1.5 0.464,0.594 0.631,1.261 0.5,2 z"
       id="path842" />
  </g>
  <g
     id="g848">
    <path
       style="opacity:1"
       fill="#3b3b3b"
       d="m 73.5,449.5 c 2.1977,-0.091 2.5311,0.575 1,2 -0.8382,-0.342 -1.1716,-1.008 -1,-2 z"
       id="path846" />
  </g>
  <g
     id="g852">
    <path
       style="opacity:1"
       fill="#bdbdbd"
       d="m 372.5,463.5 c -0.237,1.291 0.096,2.291 1,3 -4.476,17.075 -8.809,34.075 -13,51 3.085,-18.327 7.085,-36.327 12,-54 z"
       id="path850" />
  </g>
  <g
     id="g856">
    <path
       style="opacity:1"
       fill="#bebebe"
       d="m 363.5,477.5 c 0,0.667 0.333,1 1,1 -2.2,8.477 -4.533,16.81 -7,25 1.083,-8.989 3.083,-17.655 6,-26 z"
       id="path854" />
  </g>
  <g
     id="g860">
    <path
       style="opacity:1"
       fill="#c5c5c5"
       d="m 357.5,503.5 c 0.268,1.599 -0.066,2.932 -1,4 -0.268,-1.599 0.066,-2.932 1,-4 z"
       id="path858" />
  </g>
  <g
     id="g864">
    <path
       style="opacity:1"
       fill="#1b1c1b"
       d="m 356.5,507.5 c -0.667,0.667 -0.667,0.667 0,0 z"
       id="path862" />
  </g>
  <g
     id="g868">
    <path
       style="opacity:0.011"
       fill="#000000"
       d="m 506.5,525.5 c -29.667,0 -59.333,0 -89,0 2.147,-1.97 4.48,-3.803 7,-5.5 8.837,-1.169 17.67,-2.335 26.5,-3.5 12.833,-0.236 25.333,1.598 37.5,5.5 5.367,0.403 10.701,1.07 16,2 0.916,0.278 1.582,0.778 2,1.5 z"
       id="path866" />
  </g>
  <g
     id="g872">
    <path
       style="opacity:1"
       fill="#9f9f9f"
       d="m 360.5,517.5 c 0.149,1.052 -0.017,2.052 -0.5,3 -0.74,-1.249 -0.573,-2.249 0.5,-3 z"
       id="path870" />
  </g>
</svg>
