<?xml version="1.0" standalone="no"?>
<!DOCTYPE svg PUBLIC "-//W3C//DTD SVG 20010904//EN"
 "http://www.w3.org/TR/2001/REC-SVG-20010904/DTD/svg10.dtd">
<svg version="1.0" xmlns="http://www.w3.org/2000/svg"
 width="1040.000000pt" height="1040.000000pt" viewBox="0 0 1040.000000 1040.000000"
 preserveAspectRatio="xMidYMid meet">
<metadata>
Created by potrace 1.14, written by Peter Selinger 2001-2017
</metadata>
<g transform="translate(0.000000,1040.000000) scale(0.100000,-0.100000)"
fill="#000000" stroke="none">
<path d="M1888 9614 c-2 -1 -37 -6 -78 -9 -79 -7 -123 -12 -127 -15 -2 -2 -11
-3 -20 -4 -87 -10 -207 -68 -268 -130 -47 -47 -95 -126 -95 -155 0 -6 -5 -11
-12 -11 -6 0 -9 -2 -6 -5 3 -4 1 -25 -4 -48 -5 -23 -12 -51 -14 -62 -5 -24
-13 -86 -20 -175 -8 -87 -11 -452 -5 -465 3 -5 6 -30 7 -55 2 -51 11 -188 19
-270 7 -79 17 -241 15 -265 -1 -11 -1 -27 0 -35 4 -53 5 -166 2 -173 -2 -5 -6
-39 -8 -75 -2 -37 -6 -83 -9 -102 -3 -19 -7 -47 -10 -62 -17 -112 -143 -438
-194 -500 -8 -10 -11 -18 -7 -18 3 0 -5 -18 -19 -40 -14 -22 -25 -42 -25 -44
0 -22 -463 -736 -482 -744 -5 -2 -8 -8 -8 -14 0 -5 -22 -42 -49 -81 -89 -131
-204 -330 -277 -482 -66 -137 -146 -349 -158 -418 -3 -15 -7 -35 -10 -45 -15
-48 -18 -88 -21 -214 -1 -75 1 -156 5 -180 5 -24 11 -63 14 -88 7 -52 11 -69
19 -90 3 -8 12 -44 22 -80 16 -67 99 -329 115 -365 11 -26 45 -119 45 -125 1
-5 40 -113 52 -140 3 -8 7 -17 8 -20 1 -3 5 -14 10 -25 4 -11 17 -42 27 -69
11 -27 27 -68 37 -90 11 -23 26 -59 35 -81 72 -173 265 -551 403 -789 35 -60
63 -111 63 -114 0 -3 6 -13 14 -21 7 -9 24 -36 37 -61 13 -25 26 -47 29 -50 3
-3 28 -43 55 -88 28 -46 57 -94 65 -107 24 -36 84 -134 100 -163 8 -14 20 -32
27 -39 6 -7 15 -22 18 -33 3 -11 11 -20 16 -20 5 0 9 -4 9 -9 0 -5 26 -49 58
-98 31 -49 62 -98 69 -108 89 -148 311 -483 383 -580 106 -142 287 -321 375
-372 44 -25 169 -85 187 -89 10 -2 26 -6 36 -8 9 -2 37 -9 62 -15 43 -10 287
-8 340 3 14 3 43 7 65 10 44 6 86 13 125 22 14 3 32 7 40 9 18 4 98 24 123 30
25 7 54 14 77 19 11 3 107 33 213 67 105 34 197 64 202 65 6 1 89 29 185 62
96 33 276 92 400 132 124 40 239 78 255 85 17 7 64 25 105 40 101 37 389 156
481 198 41 19 97 45 124 57 56 25 302 144 380 182 28 14 92 46 143 72 51 25
96 46 99 46 4 0 14 6 22 13 9 7 63 35 121 62 58 28 107 52 110 55 3 3 37 21
75 39 39 19 171 83 295 143 124 60 237 116 253 124 15 8 27 12 27 7 0 -4 4 -3
8 3 4 5 23 17 42 26 40 19 113 50 120 53 3 1 28 12 55 25 28 13 52 24 55 25 3
1 30 13 60 27 52 24 325 148 420 190 25 11 77 35 115 53 39 18 93 42 120 55
117 52 193 89 422 201 133 65 264 132 292 149 28 16 51 27 51 24 0 -3 12 3 28
14 15 10 68 41 117 68 50 26 108 59 130 72 22 12 54 29 70 38 17 8 44 23 60
33 30 18 97 56 170 96 157 86 326 184 485 279 102 61 190 113 195 116 48 24
370 243 439 298 103 82 206 198 206 230 0 6 4 12 8 14 13 5 49 99 62 161 12
61 8 199 -9 255 -5 17 -7 32 -4 32 3 0 -1 7 -8 17 -8 9 -13 18 -11 20 6 7 -14
65 -68 198 -54 132 -80 187 -245 530 -84 173 -164 366 -194 465 -13 41 -26 82
-29 90 -3 8 -7 26 -8 40 -2 14 -8 45 -14 70 -14 54 -16 165 -6 239 8 57 83
319 96 336 6 8 15 36 25 75 0 3 11 34 23 70 19 56 32 110 48 185 2 10 6 37 9
60 3 22 8 47 10 55 2 8 7 40 10 70 3 30 8 68 11 85 3 16 7 59 10 95 16 206 32
375 40 411 2 13 7 71 9 129 5 153 -22 249 -93 326 -29 31 -176 144 -188 144
-21 0 -119 116 -198 235 -95 143 -146 198 -226 251 -25 16 -46 32 -48 37 -2 4
-8 7 -14 7 -6 0 -34 11 -63 25 -28 13 -63 26 -76 29 -143 33 -213 42 -403 51
-150 7 -281 26 -361 53 -27 9 -52 17 -55 17 -7 2 -38 15 -80 33 -19 8 -37 16
-40 17 -9 3 -52 22 -115 50 -171 77 -328 115 -550 132 -100 8 -436 9 -490 1
-48 -6 -172 -48 -246 -82 -132 -60 -184 -71 -344 -71 -82 0 -184 4 -225 9 -41
4 -95 10 -120 12 -25 2 -45 4 -45 4 0 10 -266 31 -575 45 -58 3 -141 7 -185
10 -44 3 -114 8 -155 10 -119 8 -210 14 -285 20 -38 3 -99 7 -135 10 -141 11
-197 16 -250 21 -30 3 -84 7 -120 10 -36 2 -94 7 -130 10 -36 3 -87 7 -115 9
-78 5 -206 16 -250 20 -22 2 -78 7 -125 10 -47 3 -105 7 -130 10 -25 2 -88 7
-140 10 -52 3 -131 8 -175 11 -44 3 -120 7 -170 10 -49 2 -135 6 -190 9 -112
6 -1082 15 -1087 9z m507 -139 c44 -3 109 -7 145 -9 36 -3 90 -7 120 -10 324
-32 548 -44 933 -50 103 -2 190 -6 193 -9 3 -3 17 -2 31 4 16 6 31 5 44 -1 13
-8 19 -7 19 0 0 6 5 8 11 4 6 -4 111 -8 233 -10 312 -4 695 -21 866 -38 30 -3
82 -8 115 -11 33 -3 76 -7 95 -10 19 -2 58 -6 85 -9 28 -3 59 -8 71 -10 12 -2
45 -8 75 -11 75 -10 122 -18 179 -30 19 -4 44 -8 55 -10 11 -1 34 -5 50 -9 17
-4 68 -16 115 -27 47 -12 96 -25 110 -30 14 -5 34 -10 45 -12 11 -1 25 -5 30
-9 6 -3 41 -15 78 -27 38 -11 133 -46 210 -77 136 -54 175 -71 352 -152 95
-43 483 -239 680 -343 77 -40 142 -74 145 -75 3 0 59 -26 125 -58 119 -58 192
-91 230 -106 44 -18 111 -40 135 -45 62 -12 164 -46 224 -74 113 -55 192 -166
232 -331 29 -121 26 -364 -7 -510 -6 -25 -13 -56 -15 -69 -8 -41 -24 -61 -47
-61 -67 0 -286 -10 -307 -14 -14 -2 -52 -8 -85 -11 -33 -4 -73 -9 -90 -11 -16
-2 -48 -6 -70 -8 -22 -3 -62 -8 -88 -11 -27 -3 -90 -8 -140 -10 -51 -2 -92 -5
-92 -5 0 -1 -40 -3 -90 -5 -84 -4 -225 -12 -340 -20 -27 -2 -88 -6 -135 -9
-115 -8 -201 -14 -285 -21 -38 -4 -95 -8 -125 -11 -30 -2 -79 -6 -107 -9 -29
-3 -79 -7 -110 -10 -32 -3 -78 -8 -103 -11 -25 -3 -61 -7 -80 -9 -19 -2 -57
-6 -85 -9 -113 -14 -162 -19 -197 -20 -21 0 -38 -3 -38 -6 0 -3 -12 -5 -27 -5
-31 -1 -127 -13 -164 -21 -13 -2 -50 -6 -81 -8 -32 -3 -61 -6 -65 -9 -4 -2
-33 -8 -63 -12 -30 -4 -64 -9 -75 -11 -11 -2 -39 -6 -61 -8 -23 -3 -79 -12
-125 -20 -46 -9 -99 -18 -116 -21 -77 -12 -99 -16 -113 -20 -8 -2 -31 -6 -50
-9 -19 -3 -44 -7 -55 -10 -23 -4 -105 -20 -120 -22 -5 -1 -12 -3 -15 -4 -3 -1
-14 -4 -25 -6 -11 -1 -31 -5 -45 -9 -14 -3 -36 -8 -50 -10 -14 -2 -59 -11
-100 -20 -41 -9 -90 -18 -108 -20 -18 -2 -36 -6 -40 -9 -4 -2 -27 -7 -52 -11
-24 -4 -53 -12 -65 -17 -11 -6 -21 -10 -23 -9 -2 2 -76 -12 -132 -25 -46 -11
-219 -14 -225 -4 -3 6 -15 10 -27 10 -39 0 -261 121 -303 166 -5 5 -30 26 -55
46 -51 40 -242 228 -309 304 -220 249 -368 398 -496 498 -27 22 -52 42 -55 45
-7 8 -87 63 -215 148 -60 40 -115 76 -120 81 -6 4 -42 27 -80 50 -280 170
-510 334 -640 457 -125 119 -192 374 -141 540 18 59 51 95 108 119 59 25 108
22 178 -10 40 -20 253 -164 258 -176 2 -4 9 -8 16 -8 7 0 21 -8 32 -17 10 -10
31 -24 46 -32 15 -8 36 -21 46 -30 10 -9 29 -22 43 -30 13 -8 52 -32 86 -53
34 -21 100 -56 145 -77 140 -67 152 -71 160 -58 10 16 -9 47 -36 57 -13 4 -29
14 -37 22 -8 8 -30 25 -49 38 -38 26 -212 161 -220 170 -24 28 -313 230 -329
230 -5 0 -11 4 -13 8 -3 8 -123 68 -143 72 -5 1 -18 6 -28 12 -10 5 -27 11
-38 14 -10 2 -29 7 -41 10 -13 3 -38 5 -55 5 -37 0 -42 9 -14 24 99 51 201 86
295 101 21 3 48 8 60 10 11 2 55 6 96 9 41 4 75 7 76 8 4 4 319 -2 399 -8z
m5075 -70 c19 -2 71 -6 114 -9 84 -5 158 -18 242 -42 28 -8 60 -16 70 -19 11
-2 84 -29 164 -60 192 -75 365 -132 420 -140 24 -4 47 -8 50 -10 8 -5 101 -14
205 -20 50 -3 128 -8 175 -10 47 -3 101 -7 120 -10 19 -2 54 -6 77 -9 23 -2
70 -14 105 -26 146 -52 237 -145 298 -306 39 -105 40 -102 -38 -97 -37 2 -299
6 -582 8 -539 4 -649 8 -724 25 -25 5 -49 10 -53 9 -5 -1 -11 0 -15 1 -12 4
-20 6 -53 14 -79 19 -339 99 -380 117 -11 5 -65 25 -120 44 -201 69 -322 116
-367 141 -15 8 -31 15 -35 16 -11 1 -157 70 -163 77 -6 7 -38 27 -65 42 -28
14 -80 89 -82 118 -1 13 4 36 12 52 16 30 69 72 79 62 3 -3 6 -1 6 5 0 10 58
25 135 35 35 5 354 -1 405 -8z m-1058 -179 c63 -7 165 -51 276 -119 51 -31 96
-57 101 -57 5 0 11 -4 13 -8 11 -28 777 -327 892 -349 17 -3 36 -9 41 -13 6
-4 33 -13 60 -19 28 -7 57 -16 65 -19 8 -3 20 -7 25 -8 6 -1 12 -3 15 -4 8 -3
32 -9 75 -19 115 -27 183 -41 224 -46 25 -3 53 -7 61 -10 8 -2 40 -6 70 -10
52 -5 74 -8 145 -20 17 -3 46 -8 65 -11 19 -3 43 -10 53 -15 9 -5 17 -7 17 -5
0 7 129 -42 175 -67 64 -35 116 -75 106 -81 -5 -3 -15 -4 -23 -1 -7 2 -83 7
-168 9 -85 3 -155 6 -155 7 0 1 -68 4 -270 14 -309 14 -248 -3 -543 144 -144
72 -264 131 -266 131 -2 0 -30 12 -62 27 -33 15 -63 28 -69 29 -5 1 -39 15
-75 32 -36 17 -110 49 -165 72 -55 23 -116 50 -135 58 -19 9 -37 16 -40 17 -3
1 -21 8 -40 17 -142 63 -533 228 -541 228 -5 0 -9 5 -9 10 0 6 -6 10 -12 10
-27 0 -138 54 -130 62 5 5 40 12 78 15 38 3 71 7 72 9 2 1 9 1 15 -1 7 -2 33
-6 59 -9z m2953 -660 c93 -8 163 -20 294 -50 54 -12 162 -50 167 -57 3 -5 13
-9 22 -9 22 -1 58 -28 49 -37 -4 -4 -38 -8 -75 -10 -37 -1 -82 -4 -99 -6 -18
-2 -33 1 -33 6 0 4 -6 5 -12 0 -15 -9 -25 -9 -228 -17 -147 -6 -371 -17 -425
-20 -27 -2 -62 10 -75 25 -5 6 -129 82 -186 113 -18 11 -34 23 -34 27 0 4 21
10 46 14 25 3 56 8 67 11 12 2 58 7 102 10 44 4 81 7 82 8 5 4 278 -2 338 -8z
m-7930 -116 c80 -60 159 -141 180 -186 29 -61 25 -230 -9 -349 -2 -5 -6 -23
-11 -40 -9 -36 -54 -184 -62 -205 -3 -8 -7 -21 -9 -28 -1 -8 -6 -21 -10 -30
-4 -9 -8 -21 -10 -27 -1 -5 -18 -60 -38 -122 -19 -62 -37 -125 -39 -140 -3
-24 -8 -28 -37 -28 -29 0 -34 4 -36 25 -1 14 -4 75 -8 135 -4 61 -8 124 -11
141 -12 97 -26 578 -17 597 2 4 5 38 7 75 5 94 22 219 32 236 3 4 8 4 12 0 3
-5 33 -29 66 -54z m8479 -119 c31 -58 58 -151 72 -251 10 -64 6 -448 -5 -575
-1 -5 -16 -11 -34 -12 -38 -1 -152 -12 -152 -13 0 -1 -16 -3 -35 -5 -62 -6
-144 -14 -185 -19 -22 -3 -69 -8 -105 -12 -36 -3 -78 -8 -95 -9 -16 -2 -64 -7
-105 -10 -41 -3 -82 -8 -90 -10 -8 -2 -49 -7 -90 -10 -41 -4 -79 -7 -85 -8 -5
-1 -9 7 -8 18 2 25 13 95 18 115 6 22 16 80 20 120 2 19 4 35 5 35 2 0 9 35
15 75 25 177 25 353 0 458 -3 12 -7 30 -9 40 -2 9 -6 23 -8 30 -2 10 11 15 47
17 28 2 86 7 130 10 104 8 160 12 275 19 52 3 115 8 140 11 25 2 85 7 134 10
49 3 91 7 93 9 13 12 41 -4 57 -33z m-980 -49 c16 -61 21 -87 30 -147 4 -22
10 -65 15 -95 13 -83 10 -252 -7 -333 -44 -215 -186 -352 -405 -391 l-38 -7 5
33 c16 101 19 142 20 233 1 55 -2 118 -7 139 -4 21 -9 55 -12 75 -2 20 -4 37
-5 39 -3 2 -4 6 -14 47 -13 48 -59 169 -71 185 -6 8 -19 31 -28 51 -9 21 -35
61 -57 90 -22 29 -38 54 -37 55 3 3 100 11 217 19 151 10 255 17 257 19 1 0
31 2 67 3 53 1 66 -2 70 -15z m-6974 -180 c80 -52 163 -110 186 -129 23 -18
44 -33 47 -33 3 0 16 -9 29 -20 12 -10 68 -54 123 -97 116 -90 113 -88 270
-226 148 -130 181 -161 375 -350 85 -84 166 -161 180 -172 251 -200 323 -297
346 -463 8 -59 10 -283 2 -288 -4 -3 -3 -15 2 -28 5 -13 6 -27 3 -30 -4 -3 -8
-48 -10 -99 -3 -50 -8 -95 -11 -99 -7 -6 -25 -9 -134 -24 -24 -3 -50 -7 -58
-9 -8 -2 -37 -7 -65 -10 -27 -3 -57 -7 -65 -10 -8 -2 -37 -6 -65 -9 -27 -3
-61 -8 -75 -10 -41 -8 -183 -28 -215 -32 -16 -1 -30 -3 -30 -4 0 -3 -31 -8
-87 -14 -31 -4 -66 -9 -79 -11 -12 -3 -59 -9 -103 -15 -45 -6 -92 -13 -106
-15 -14 -2 -38 -6 -55 -9 -16 -3 -50 -8 -75 -11 -25 -3 -74 -11 -110 -16 -36
-5 -76 -12 -90 -14 -14 -2 -43 -6 -65 -10 -22 -3 -60 -8 -85 -11 -73 -9 -92
-12 -159 -24 -35 -6 -66 -9 -69 -6 -2 3 -12 1 -21 -3 -9 -5 -41 -11 -71 -15
-30 -3 -66 -8 -80 -10 -13 -3 -42 -8 -65 -11 -22 -4 -51 -8 -65 -10 -114 -17
-191 -27 -194 -24 -2 2 4 42 15 89 10 47 21 94 23 105 2 11 9 40 16 64 6 23 9
46 6 49 -3 3 -2 10 3 16 5 6 12 28 15 50 4 21 8 42 11 46 2 3 7 21 10 38 3 18
12 62 21 99 9 38 18 79 20 93 3 14 7 33 10 42 3 9 6 25 8 35 2 10 9 36 14 58
6 22 13 51 16 65 3 14 7 36 11 50 3 14 7 34 9 45 2 11 12 52 21 90 9 39 19 81
22 95 9 45 11 55 13 55 1 0 3 11 5 25 6 32 13 65 15 65 2 0 6 17 13 60 3 17
13 62 22 100 9 39 18 77 20 85 2 8 11 47 20 85 9 39 19 79 21 90 2 11 10 49
19 85 9 36 18 74 21 85 2 11 8 41 14 66 6 26 13 55 15 65 2 11 4 19 5 19 2 0
5 16 14 60 6 34 9 44 30 132 9 34 18 75 21 90 2 15 9 43 14 61 5 18 10 35 10
37 8 71 14 85 35 79 11 -4 86 -50 166 -102z m7976 -702 c0 -8 -4 -20 -8 -26
-5 -7 -8 -16 -7 -20 3 -10 -26 -112 -47 -166 -7 -21 -12 -38 -9 -38 2 0 0 -11
-5 -25 -5 -14 -12 -36 -14 -48 -3 -12 -14 -53 -26 -92 -12 -38 -23 -77 -25
-85 -2 -8 -38 -136 -80 -285 -42 -148 -79 -278 -81 -289 -6 -31 -11 -29 -25
11 -15 43 -15 43 -28 98 -27 113 -31 152 -36 385 -2 113 -7 243 -11 290 -9
121 -6 170 15 210 33 64 135 95 311 95 60 0 75 -3 76 -15z m-520 -52 c-1 -13
0 -27 2 -32 3 -5 7 -39 9 -75 2 -36 6 -88 8 -116 24 -352 25 -772 0 -1070 -11
-134 -19 -218 -29 -280 -3 -22 -8 -60 -11 -85 -3 -25 -7 -56 -10 -70 -3 -14
-7 -34 -9 -45 -5 -27 -19 -107 -21 -120 -1 -5 -3 -13 -3 -18 -1 -4 -15 -1 -32
8 -16 8 -32 15 -35 15 -14 1 -65 22 -156 64 -31 14 -60 26 -65 26 -6 0 -16 6
-23 13 -6 6 -15 12 -19 12 -11 0 -283 139 -372 190 -19 11 -41 20 -49 22 -8 1
-17 5 -20 10 -3 4 -28 19 -56 32 -27 14 -62 33 -77 43 -14 10 -31 18 -37 18
-6 0 -29 11 -50 24 -21 14 -42 22 -45 19 -3 -4 -6 -1 -6 5 0 7 -4 12 -10 12
-5 0 -55 22 -112 49 -117 55 -146 68 -238 105 -75 31 -88 36 -152 65 -26 12
-50 21 -52 21 -2 0 -21 8 -42 17 -22 9 -41 17 -44 18 -27 8 -182 84 -256 125
-99 56 -156 111 -227 217 -98 148 -143 269 -134 362 5 49 11 60 43 88 20 18
40 30 45 28 4 -3 10 -1 13 4 13 21 128 31 403 36 125 2 246 6 268 9 22 3 65 8
95 11 30 3 64 8 75 11 11 2 41 6 66 8 25 3 57 7 70 10 13 3 42 8 64 12 22 3
49 8 60 10 11 1 36 6 55 9 38 6 62 11 100 19 60 12 94 19 165 31 22 3 58 11
80 17 22 7 43 11 48 10 4 -1 28 3 55 9 26 6 56 12 67 14 31 6 68 13 91 19 12
2 37 7 55 10 19 3 45 8 59 11 70 14 237 44 284 50 15 2 30 5 31 7 2 2 21 4 43
6 35 2 39 0 38 -20z m-2486 -319 c0 -4 -18 -18 -40 -30 -22 -13 -40 -26 -40
-31 0 -4 -7 -8 -15 -8 -11 0 -15 11 -15 38 l0 37 55 0 c30 1 55 -2 55 -6z
m-245 -56 c-5 -21 -9 -42 -11 -48 -1 -5 -5 -26 -8 -45 -4 -19 -9 -42 -11 -50
-2 -8 -7 -30 -10 -49 -3 -19 -8 -37 -10 -40 -2 -4 -6 -27 -10 -51 -3 -25 -10
-61 -15 -80 -5 -19 -12 -53 -16 -75 -3 -22 -8 -43 -10 -46 -2 -4 -6 -24 -10
-45 -3 -22 -7 -41 -9 -42 -2 -2 -21 -5 -42 -7 -46 -4 -138 -15 -167 -21 -12
-2 -46 -6 -76 -9 -30 -3 -65 -7 -77 -9 -12 -3 -48 -7 -80 -11 -32 -3 -65 -8
-73 -10 -8 -2 -40 -6 -70 -9 -30 -4 -66 -8 -80 -10 -14 -3 -68 -10 -120 -16
-52 -6 -107 -13 -121 -16 -15 -2 -47 -6 -70 -9 -49 -6 -111 -14 -149 -20 -14
-2 -50 -7 -80 -10 -30 -3 -67 -8 -81 -11 -42 -6 -110 -15 -154 -19 -22 -2 -40
-5 -40 -5 0 -2 -22 -5 -105 -15 -36 -4 -73 -9 -84 -11 -10 -2 -44 -6 -75 -10
-31 -3 -65 -8 -76 -10 -11 -3 -45 -7 -75 -9 -30 -3 -66 -7 -80 -10 -14 -3 -47
-8 -75 -10 -49 -5 -105 -12 -156 -20 -14 -3 -41 -7 -60 -9 -19 -2 -59 -7 -89
-11 -105 -14 -115 -15 -163 -20 -26 -3 -53 -6 -60 -8 -12 -2 -13 9 -4 48 2 11
8 42 11 68 4 27 9 59 12 70 2 12 6 31 8 42 27 134 73 256 113 300 27 29 80 65
96 65 8 0 20 7 27 15 7 9 15 14 17 11 3 -2 19 2 37 9 18 8 44 16 57 18 13 3
42 10 64 15 39 11 309 53 323 51 4 -1 9 0 12 1 3 1 16 3 30 5 88 12 127 18
265 41 50 9 104 17 120 19 17 2 30 4 30 5 0 1 11 3 25 4 79 9 168 21 220 31
39 7 112 17 145 20 30 3 50 6 180 24 76 11 168 21 224 26 20 2 36 4 36 5 0 0
27 3 60 6 33 2 74 6 92 9 17 3 69 7 115 11 46 3 99 8 118 10 19 2 85 6 145 10
61 3 112 8 114 10 10 10 13 -8 6 -43z m-3031 -307 c80 -38 172 -58 268 -58 49
0 88 -3 88 -6 0 -4 -5 -24 -11 -46 -6 -21 -13 -48 -15 -60 -9 -38 -12 -51 -14
-51 -1 0 -3 -7 -5 -15 -2 -8 -24 -94 -50 -190 -25 -96 -48 -183 -50 -193 -2
-9 -6 -21 -9 -26 -3 -4 -8 -23 -11 -42 -2 -19 -14 -65 -25 -104 -12 -38 -23
-79 -25 -90 -3 -11 -16 -59 -29 -107 -13 -48 -22 -89 -20 -91 2 -2 -8 -4 -24
-5 -26 0 -29 4 -47 61 -10 34 -19 69 -20 77 -2 8 -8 38 -15 65 -12 52 -13 58
-25 140 -3 28 -8 61 -11 75 -21 135 -27 690 -7 690 4 0 29 -11 57 -24z m3456
-195 c-1 -56 -36 -92 -37 -37 -1 17 0 36 2 42 5 17 35 13 35 -5z m-1426 -341
c-37 -38 -39 -39 -45 -18 -11 44 0 58 43 58 l41 0 -39 -40z m-4688 -70 c-54
-69 -67 -81 -74 -62 -2 8 114 132 124 132 3 0 -20 -32 -50 -70z m6374 26 c0
-3 -4 -8 -10 -11 -5 -3 -10 -1 -10 4 0 6 5 11 10 11 6 0 10 -2 10 -4z m-18
-56 c-2 -16 -8 -30 -13 -30 -10 0 -11 7 -3 38 9 33 21 27 16 -8z m-4958 -269
c-21 -16 -40 -28 -42 -27 -1 2 3 15 9 30 9 20 20 26 42 26 l31 0 -40 -29z
m5726 -40 c0 -8 -31 -54 -41 -61 -5 -3 -13 -17 -19 -30 l-10 -25 4 26 c10 47
35 96 50 96 9 0 16 -3 16 -6z m736 -220 c-4 -32 -9 -70 -12 -83 -3 -12 -7 -41
-10 -63 -3 -22 -7 -47 -8 -55 -2 -8 -6 -41 -11 -72 -4 -32 -11 -58 -16 -58
-16 0 -31 86 -26 155 2 38 15 107 28 153 19 65 28 82 43 82 17 0 18 -5 12 -59z
m-8576 -38 c-11 -17 -11 -17 -6 0 3 10 6 24 7 30 0 9 2 9 5 0 3 -7 0 -20 -6
-30z m6945 -39 c-3 -19 -11 -34 -17 -34 -6 0 -7 7 -3 18 4 9 9 33 13 52 4 22
8 28 10 17 2 -11 1 -34 -3 -53z m-6974 -40 c-11 -27 -27 -70 -37 -96 -9 -26
-20 -45 -25 -42 -9 5 -1 28 48 136 31 70 41 72 14 2z m6268 -78 c-11 -26 -23
-45 -27 -42 -3 4 5 29 19 56 30 61 37 50 8 -14z m-962 -54 c-9 -9 -63 -89
-120 -177 -58 -88 -114 -172 -126 -187 -36 -45 -29 -53 41 -51 162 6 306 4
331 -6 15 -6 27 -8 27 -6 0 3 17 -3 39 -14 69 -35 114 -110 106 -176 -1 -14 2
-28 6 -31 5 -3 5 -13 0 -22 -8 -16 -6 -410 2 -462 3 -14 8 -56 11 -95 4 -38 9
-83 12 -100 8 -57 26 -265 28 -346 5 -135 -43 -223 -116 -214 -38 5 -79 47
-95 98 -5 19 -9 106 -8 195 2 223 -22 310 -96 351 -20 12 -54 21 -76 21 -49 0
-131 -24 -181 -52 -47 -27 -129 -109 -170 -169 -29 -43 -132 -241 -132 -254 0
-3 -9 -27 -21 -53 -12 -26 -25 -56 -29 -67 -66 -165 -152 -300 -212 -331 -25
-13 -28 -12 -39 7 -18 35 7 168 43 224 3 6 28 53 55 105 26 52 50 97 53 100
11 11 30 51 70 146 23 54 48 113 56 129 25 57 91 230 108 285 10 30 21 64 26
75 10 23 29 83 35 114 3 11 7 29 9 39 2 9 11 46 19 82 9 36 18 85 22 110 3 25
8 56 10 70 3 14 7 69 10 124 5 91 4 98 -12 91 -45 -18 -49 -18 -32 -4 9 8 27
30 40 49 13 19 31 44 41 54 10 11 20 28 24 38 3 10 10 18 15 18 5 0 9 5 9 10
0 11 10 24 43 61 9 10 17 23 17 28 0 5 7 12 16 15 9 4 14 9 11 12 -3 3 2 15
11 26 33 39 47 58 82 107 19 28 39 51 44 51 5 0 2 -8 -7 -18z m1726 -254 c-2
-128 -3 -251 -3 -273 -2 -74 10 -529 15 -590 2 -33 7 -89 11 -125 3 -36 7 -83
9 -105 4 -61 15 -147 22 -175 9 -38 10 -70 2 -70 -17 0 -97 70 -129 112 -19
26 -66 104 -104 175 -85 157 -142 248 -175 282 -31 31 -91 75 -91 66 0 -3 -6
-3 -12 2 -7 4 -31 8 -53 9 -97 2 -136 -57 -130 -201 2 -49 8 -115 15 -145 6
-30 13 -68 16 -85 5 -38 12 -70 14 -70 1 0 4 -30 6 -68 6 -77 -15 -133 -72
-188 -37 -36 -107 -49 -136 -26 -23 18 -60 101 -48 105 6 2 6 11 2 20 -5 9 -7
42 -5 72 3 64 5 383 3 390 -1 3 -3 34 -5 70 -4 87 -14 245 -20 300 -7 70 -18
241 -17 286 1 108 42 167 115 167 66 0 130 -48 227 -173 19 -25 38 -46 42 -48
5 -2 8 -7 8 -12 0 -8 30 -45 103 -126 42 -46 116 -88 132 -73 5 5 16 9 25 9
30 0 81 74 94 135 8 41 8 125 0 215 -16 190 0 274 62 331 32 29 66 49 74 44 3
-2 4 -108 3 -237z m-816 175 c-2 -15 -9 -29 -15 -31 -9 -3 -9 4 -1 27 13 38
21 40 16 4z m-6018 -55 c-6 -12 -15 -25 -18 -28 -3 -3 -14 -22 -23 -42 -10
-21 -22 -38 -27 -38 -9 0 -1 17 54 107 22 36 33 37 14 1z m7780 18 c93 -15
232 -99 301 -180 34 -40 101 -136 95 -136 -3 0 1 -10 9 -23 32 -48 67 -186 71
-277 3 -92 -42 -255 -82 -298 -7 -7 -13 -18 -13 -23 0 -5 -32 -41 -70 -78 -53
-52 -93 -80 -163 -115 -82 -40 -222 -89 -244 -85 -4 1 -10 0 -13 -1 -24 -9
-99 -19 -191 -25 l-76 -5 3 163 c1 89 6 338 10 552 3 215 7 421 8 459 l1 69
50 5 c28 2 51 5 52 6 5 5 213 -2 252 -8z m-5089 -27 c0 -10 -94 -118 -98 -114
-2 2 8 21 22 42 14 20 26 41 26 46 0 13 23 34 37 34 7 0 13 -4 13 -8z m-1375
-14 c137 -26 256 -126 269 -227 7 -57 -41 -157 -109 -230 -14 -15 -25 -30 -25
-33 0 -5 -10 -18 -36 -48 -13 -14 -47 -76 -50 -92 -2 -5 -7 -24 -12 -42 -6
-17 -8 -34 -5 -37 3 -3 7 -23 9 -45 4 -43 32 -135 66 -210 33 -76 60 -146 60
-158 0 -4 4 -18 9 -31 18 -46 24 -131 24 -327 0 -169 -7 -304 -20 -374 -1 -9
-6 -43 -9 -76 -7 -60 -15 -113 -21 -144 -1 -9 -6 -41 -11 -71 -4 -30 -8 -57
-9 -60 -1 -3 -5 -27 -10 -55 -5 -27 -10 -53 -11 -57 -1 -5 -2 -23 -3 -40 l-1
-33 -29 34 c-40 47 -96 162 -107 221 -13 68 -17 106 -17 180 -1 75 7 187 18
260 13 86 17 119 21 155 8 64 12 309 6 320 -3 5 -7 22 -9 38 -2 16 -15 63 -29
105 -53 153 -138 249 -227 256 -153 13 -328 -211 -372 -474 -3 -19 -8 -48 -11
-65 -4 -16 -7 -39 -9 -50 -1 -11 -3 -20 -4 -20 -2 0 -5 -18 -7 -39 -3 -21 -9
-47 -15 -57 -5 -11 -8 -19 -5 -19 3 0 -2 -24 -11 -52 -8 -29 -16 -57 -18 -63
-16 -71 -29 -95 -51 -95 -32 0 -61 131 -58 255 2 82 4 105 19 185 3 14 7 39
10 55 2 17 9 45 14 63 5 17 7 32 4 32 -3 0 0 7 7 15 7 8 10 15 7 15 -3 0 1 24
9 53 8 28 17 60 19 70 2 10 6 26 9 35 3 9 7 28 10 42 3 14 12 52 20 86 8 34
18 74 22 90 4 16 8 126 9 244 3 234 4 241 35 306 48 98 203 189 354 208 21 3
40 7 43 10 7 7 190 0 238 -9z m5805 -15 c0 -11 -4 -20 -9 -20 -5 0 -7 9 -4 20
3 11 7 20 9 20 2 0 4 -9 4 -20z m-6 -77 c-3 -27 -10 -52 -16 -58 -7 -7 -9 2
-4 30 3 22 6 48 6 58 0 9 4 17 9 17 5 0 7 -21 5 -47z m2061 -49 c-19 -64 -86
-295 -90 -314 -2 -8 -4 -15 -5 -15 -1 0 -3 -7 -5 -15 -1 -8 -22 -80 -45 -160
-23 -80 -43 -149 -44 -155 -4 -16 -27 -99 -31 -113 -3 -7 -4 -13 -5 -15 0 -1
-7 -27 -16 -57 -9 -30 -18 -62 -19 -70 -4 -28 -17 -50 -26 -44 -6 3 -8 13 -5
22 3 10 8 35 11 57 7 58 31 183 41 220 2 6 6 26 9 45 4 19 13 62 22 95 8 33
17 67 18 75 2 8 4 15 5 15 1 0 3 7 5 15 11 45 15 58 26 90 29 85 74 199 97
250 14 30 25 58 24 63 -1 4 1 7 6 7 4 0 13 14 21 31 20 45 23 29 6 -27z
m-5435 -100 c-39 -74 -70 -138 -70 -141 0 -4 9 2 20 12 11 10 20 14 20 10 0
-4 8 -1 18 7 26 22 112 68 112 59 0 -4 -30 -29 -67 -56 -38 -27 -71 -53 -74
-58 -4 -5 -26 8 -50 30 -36 32 -49 38 -69 32 -14 -4 -35 -7 -48 -8 -24 -1 -15
8 132 134 33 28 75 65 95 82 20 18 39 33 43 33 5 0 -24 -61 -62 -136z m-936
99 c8 -19 7 -20 -19 -25 -14 -2 -21 3 -23 17 -3 25 33 32 42 8z m-654 -117 c0
-14 -42 -56 -56 -56 -7 0 -15 -6 -18 -12 -7 -15 3 78 11 97 3 10 11 10 34 -3
16 -10 29 -21 29 -26z m756 -7 c55 -17 106 -32 114 -34 8 -2 25 -7 38 -12 23
-9 16 -23 -290 -634 -299 -592 -343 -684 -339 -701 0 -5 -3 -8 -8 -8 -8 0 -17
-19 -26 -57 -11 -44 -121 -247 -155 -286 -44 -49 -106 -92 -160 -107 l-32 -9
6 42 c9 62 29 135 82 298 26 79 49 149 50 154 2 6 12 43 23 84 52 195 43 366
-26 491 -24 42 -77 115 -112 151 -143 150 -189 205 -220 267 -32 64 -42 133
-28 202 5 25 9 51 10 58 0 6 4 12 9 12 4 0 8 8 8 17 0 28 19 2 98 -133 130
-222 235 -343 340 -391 124 -57 237 -2 334 163 31 54 113 251 122 293 2 9 6
23 9 31 3 8 16 43 28 78 12 34 23 62 24 62 1 0 47 -14 101 -31z m6887 11 c3
-11 1 -18 -4 -14 -5 3 -9 12 -9 20 0 20 7 17 13 -6z m-5913 -24 c0 -2 -7 -7
-16 -10 -8 -3 -12 -2 -9 4 6 10 25 14 25 6z m-3884 -34 c-17 -16 -18 -16 -5 5
7 12 15 20 18 17 3 -2 -3 -12 -13 -22z m9804 16 c0 -7 6 -52 14 -100 7 -49 9
-88 4 -88 -13 0 -16 17 -22 103 -3 44 -8 83 -12 88 -3 5 0 9 5 9 6 0 11 -6 11
-12z m-9841 -87 c-12 -23 -27 -41 -32 -41 -10 0 -9 3 22 53 31 50 39 40 10
-12z m5906 -107 c-1 -103 -3 -118 -18 -120 -24 -3 -26 4 -17 61 10 64 23 156
23 172 0 7 3 10 6 9 3 -2 6 -57 6 -122z m-5592 49 c-11 -32 -33 -59 -33 -42 0
14 27 59 35 59 3 0 2 -8 -2 -17z m3370 -60 c-7 -22 -25 -63 -88 -208 -46 -106
-328 -671 -401 -805 -44 -81 -88 -163 -89 -170 -1 -3 -5 -12 -8 -20 -36 -87
-42 -181 -13 -224 29 -45 64 -60 142 -63 39 -1 95 4 123 12 28 7 52 13 54 14
13 1 161 53 207 73 25 10 56 24 70 30 14 6 32 14 40 19 8 4 35 19 60 32 25 12
85 45 133 71 l89 48 -6 -44 c-12 -87 -71 -240 -122 -315 -139 -208 -368 -336
-679 -380 -49 -7 -385 -9 -457 -3 -21 2 -38 6 -38 9 0 8 39 132 47 151 3 8 7
17 8 20 3 14 64 194 117 345 52 150 76 216 104 290 4 11 8 22 8 25 1 3 11 30
23 60 12 30 42 109 67 175 43 115 67 177 86 220 10 23 19 53 20 60 0 3 7 20
17 38 9 17 18 34 18 37 3 9 16 43 53 130 124 300 202 384 359 389 57 2 62 0
56 -16z m34 -198 c-4 -8 -11 -15 -17 -15 -7 0 -7 6 0 21 13 23 26 19 17 -6z
m-3783 -3 c-6 -4 -30 -41 -55 -82 -42 -73 -44 -74 -49 -45 -3 17 -3 31 1 33 4
2 4 16 -1 32 -10 35 6 52 52 57 18 2 34 5 36 8 3 3 10 5 16 5 8 0 8 -2 0 -8z
m9310 -247 c-24 -99 -36 -126 -78 -175 -42 -50 -57 -56 -35 -13 11 21 19 43
19 50 0 7 5 13 10 13 6 0 10 4 10 9 0 5 14 39 30 74 17 36 30 68 30 72 0 6 24
34 27 31 1 -1 -5 -29 -13 -61z m-7290 -36 c20 -12 36 -22 36 -24 0 -2 -13 -2
-29 -1 -30 2 -61 21 -61 37 0 14 16 11 54 -12z m-1458 -67 c-17 -16 -18 -16
-5 5 7 12 15 20 18 17 3 -2 -3 -12 -13 -22z m10 -45 c13 5 14 -2 10 -38 -3
-24 -12 -68 -20 -98 -21 -77 -30 -82 -40 -21 -3 19 -8 47 -11 63 -6 31 36 135
43 105 2 -10 9 -15 18 -11z m-353 -67 c-7 -25 -23 -27 -18 -2 2 9 4 18 4 20 1
1 5 2 10 2 5 0 7 -9 4 -20z m8895 -33 c22 -1 12 -15 -20 -28 -18 -7 -36 -14
-40 -16 -4 -3 -1 10 5 27 8 21 16 29 27 24 8 -4 21 -7 28 -7z m-7375 -39 c-3
-16 -9 -28 -14 -28 -12 0 -11 4 3 35 14 31 18 29 11 -7z m-883 -132 c-8 -8 -9
-4 -6 14 2 14 6 32 7 40 1 8 4 2 6 -14 3 -16 0 -33 -7 -40z m6621 -19 c-6 -15
-15 -27 -21 -27 -14 0 -12 57 3 63 20 8 28 -8 18 -36z m-7279 -172 c-2 -14 -9
-25 -14 -25 -5 0 -7 3 -5 8 2 4 7 15 10 25 9 25 15 21 9 -8z m6348 -56 c0 -6
-6 -9 -14 -6 -7 3 -17 2 -22 -3 -15 -14 -74 -23 -74 -11 0 6 9 11 19 11 11 0
23 5 26 10 8 14 65 13 65 -1z m1843 -15 c-12 -9 -32 -24 -44 -35 -21 -18 -39
-25 -39 -14 0 6 91 65 99 64 4 0 -4 -7 -16 -15z m-1058 -31 c-2 -16 -5 -43 -7
-60 -1 -18 -6 -33 -11 -33 -8 0 -5 39 8 90 2 8 4 18 4 23 1 4 3 7 6 7 3 0 3
-12 0 -27z m506 -51 c-27 -18 -110 -57 -98 -46 4 4 28 20 54 35 52 30 83 38
44 11z m449 8 c0 -5 -3 -10 -7 -10 -5 0 -19 -3 -33 -6 l-25 -6 25 15 c31 18
40 20 40 7z m-2992 -116 c-2 -39 -17 -57 -19 -25 -4 58 -1 73 11 66 6 -4 9
-22 8 -41z m1554 -48 c3 -5 0 -30 -8 -55 -7 -25 -14 -48 -14 -51 -4 -28 -19
-80 -36 -125 -4 -11 -8 -23 -8 -26 -3 -17 -59 -109 -85 -139 l-30 -35 25 75
c14 41 27 82 29 90 2 8 4 16 4 18 1 1 0 4 -1 5 -2 2 2 10 8 18 9 11 44 111 48
139 1 3 6 19 13 35 6 17 14 38 17 48 6 18 26 19 38 3z m-5587 -66 c-7 -28 -13
-54 -13 -57 0 -4 -6 -9 -13 -12 -8 -2 -10 2 -5 15 5 11 9 24 10 29 2 6 6 18 9
28 4 9 9 24 12 32 2 8 6 15 9 15 2 0 -2 -23 -9 -50z m4973 -52 c-18 -35 -34
-65 -35 -67 -2 -2 -6 -1 -10 2 -3 4 8 29 24 56 17 27 34 60 39 73 4 12 9 17
11 11 3 -7 -10 -41 -29 -75z m-4163 -5 c-5 -15 -9 -32 -10 -38 -1 -5 -3 -12
-4 -15 -1 -3 -5 -16 -7 -30 -3 -14 -9 -42 -15 -63 -9 -33 -13 -37 -32 -31 -38
11 -40 10 -61 -28 -12 -21 -27 -40 -34 -43 -14 -5 24 64 41 76 5 3 9 10 9 15
1 17 21 54 30 54 4 0 8 4 8 9 0 15 72 132 78 127 2 -3 1 -18 -3 -33z m4036
-181 c-15 -32 -40 -82 -56 -112 -16 -30 -29 -59 -30 -65 0 -5 -8 -11 -17 -13
-16 -3 -17 0 -3 39 9 23 16 57 18 76 1 18 6 33 11 33 5 0 7 2 4 5 -3 3 0 25 7
48 12 42 38 59 77 49 14 -3 13 -11 -11 -60z m-888 -94 c-20 -51 -38 -103 -40
-115 -3 -13 -12 -23 -20 -23 -11 0 -13 4 -5 13 5 6 13 23 17 37 4 14 15 43 25
65 10 22 25 57 33 78 9 20 18 37 20 37 3 0 -11 -42 -30 -92z m-3178 33 c-8
-13 -67 -42 -73 -36 -7 6 -5 8 38 28 41 20 43 20 35 8z m2373 -297 c-18 -19
-33 -34 -34 -34 -1 0 0 9 3 19 7 26 42 63 54 56 5 -4 -5 -22 -23 -41z m-1679
-1 c6 -4 -60 -73 -71 -73 -4 0 -3 11 2 25 6 14 10 27 10 30 0 3 0 12 0 20 0
12 7 14 28 9 15 -4 29 -8 31 -11z m327 -56 c3 -2 -31 -27 -76 -56 -80 -51
-101 -50 -60 2 29 37 26 51 -10 44 -16 -4 -30 -3 -30 1 0 5 24 9 52 11 29 1
54 4 56 5 4 5 62 -1 68 -7z m2581 -74 c-8 -16 -17 -40 -21 -55 -3 -16 -11 -28
-16 -28 -6 0 -10 2 -10 5 0 15 48 105 56 105 3 0 -2 -12 -9 -27z m-3347 -68
c0 -3 -22 -45 -50 -95 -27 -50 -50 -95 -50 -100 0 -6 -4 -10 -9 -10 -5 0 -11
-10 -15 -22 -8 -32 -46 -91 -53 -84 -4 3 -2 16 4 29 42 86 108 227 119 255 9
21 21 32 34 32 11 0 20 -2 20 -5z m3136 -52 c-8 -15 -15 -25 -16 -21 0 12 23
58 27 54 3 -2 -2 -17 -11 -33z m-25 -60 c-6 -10 -20 -39 -31 -65 -11 -27 -25
-48 -30 -48 -6 0 6 32 26 71 19 39 38 69 40 66 3 -3 1 -13 -5 -24z m-765 -225
c-9 -44 -57 -201 -68 -222 -6 -11 -11 -23 -11 -26 3 -28 -88 -199 -130 -245
-18 -19 -18 -19 -2 20 9 22 33 78 52 125 34 82 69 162 98 225 8 17 24 56 36
88 24 60 32 72 25 35z m-1656 -118 c-6 -11 -16 -20 -22 -20 -6 0 -3 9 7 20 10
11 20 20 22 20 2 0 -1 -9 -7 -20z m1720 -290 c0 -5 -17 -14 -37 -19 -50 -14
-53 -14 -47 4 4 8 9 13 13 11 4 -3 12 -1 19 3 17 10 52 11 52 1z m-3020 -254
c-5 -27 -10 -30 -42 -31 -40 0 -39 1 6 59 26 33 31 36 36 20 4 -10 4 -32 0
-48z m1145 -288 c18 -36 16 -39 -42 -61 -47 -19 -47 -24 -8 60 21 46 27 47 50
1z"/>
<path d="M1656 8843 c-1 -2 -20 -5 -42 -7 -21 -3 -43 -5 -47 -5 -38 -4 79 -55
154 -67 61 -9 169 -11 169 -1 0 4 3 6 8 5 17 -5 84 14 76 21 -9 9 -64 28 -105
37 -43 9 -207 23 -213 17z"/>
<path d="M1538 8510 c12 -11 28 -20 36 -20 8 0 18 -4 21 -10 3 -5 14 -10 23
-10 11 0 8 5 -10 14 -15 8 -38 22 -50 30 -32 23 -46 20 -20 -4z"/>
<path d="M3888 7621 c-22 -18 -46 -73 -54 -126 -2 -11 -5 -31 -8 -45 -6 -24
-9 -48 -23 -165 -11 -87 -7 -307 7 -385 l13 -75 28 35 c16 19 29 37 29 41 0 4
5 20 12 36 6 15 12 30 13 33 1 3 5 12 8 20 29 69 66 442 58 581 -1 24 -33 69
-50 69 -5 0 -19 -9 -33 -19z"/>
<path d="M3290 7567 c0 -7 9 -23 20 -35 11 -12 20 -24 20 -27 0 -3 29 -48 65
-100 36 -53 65 -98 65 -101 0 -3 9 -15 21 -27 11 -12 25 -31 30 -42 12 -27 30
-55 52 -79 9 -11 17 -23 17 -27 0 -4 6 -14 13 -21 6 -8 20 -27 29 -43 9 -16
22 -31 29 -34 7 -2 9 1 5 8 -4 6 -9 25 -11 43 -7 67 -36 155 -76 236 -23 45
-45 82 -50 82 -5 0 -9 6 -9 14 0 8 -25 36 -55 63 -46 42 -77 61 -157 101 -5 2
-8 -3 -8 -11z"/>
<path d="M4608 7250 c-73 -21 -161 -67 -204 -105 -7 -5 -37 -32 -68 -58 -30
-27 -65 -62 -77 -78 -17 -24 15 -8 163 82 100 61 195 120 210 130 14 11 30 19
36 19 5 0 15 7 22 15 16 20 4 19 -82 -5z"/>
<path d="M4265 7190 c-27 -16 -68 -50 -90 -75 -39 -45 -98 -145 -91 -153 16
-15 175 125 197 173 5 11 18 35 29 53 24 39 19 40 -45 2z"/>
<path d="M3286 7185 c4 -8 10 -15 15 -15 5 0 9 -5 9 -10 0 -29 319 -330 350
-330 4 0 -31 37 -77 83 -47 45 -133 128 -191 185 -58 56 -107 102 -108 102 -2
0 -1 -7 2 -15z"/>
<path d="M7574 9268 c64 -98 299 -201 511 -224 80 -9 103 -8 89 5 -17 16 -174
100 -174 93 0 -4 -7 2 -16 13 -8 11 -17 19 -19 17 -3 -1 -22 5 -43 14 -57 24
-165 62 -187 66 -11 2 -22 6 -25 9 -3 4 -21 9 -40 12 -19 3 -52 9 -74 13 l-38
7 16 -25z"/>
<path d="M8697 8994 c-1 -1 -31 -4 -67 -7 -74 -6 -212 -33 -251 -48 -25 -10
-46 -55 -33 -69 8 -8 334 -5 409 4 39 4 81 9 95 10 67 8 228 61 218 72 -5 4
-86 20 -151 29 -44 6 -215 13 -220 9z"/>
<path d="M9925 7649 c0 -60 3 -109 8 -109 5 0 7 6 4 14 -3 8 -3 17 1 20 6 6
12 30 14 51 2 25 -13 120 -19 126 -5 5 -8 -41 -8 -102z"/>
<path d="M9839 7634 c0 -5 -3 -35 -5 -66 -3 -33 -1 -58 5 -58 14 0 19 21 15
74 -3 43 -13 76 -15 50z"/>
<path d="M1973 7478 c-18 -23 -33 -82 -29 -118 6 -54 25 -86 65 -108 32 -18
39 -19 68 -7 18 8 42 29 53 47 30 50 24 55 -17 15 -45 -45 -79 -49 -87 -9 -13
62 -19 98 -19 120 -1 12 -5 22 -10 22 -4 0 -5 4 -2 10 3 5 2 17 -3 26 -7 12
-10 13 -19 2z"/>
<path d="M2257 7175 c8 -24 30 -61 47 -82 29 -32 38 -37 75 -36 32 1 50 8 71
28 46 44 48 112 4 129 -22 8 -22 7 -30 -40 -3 -21 -8 -41 -10 -43 -5 -6 -54
19 -114 58 -25 16 -48 30 -51 30 -4 1 0 -19 8 -44z"/>
<path d="M2344 6628 c-48 -10 -94 -48 -94 -77 0 -44 24 -72 85 -101 94 -45
200 -39 244 13 61 74 -106 191 -235 165z m86 -43 c0 -3 -7 -21 -15 -41 -8 -19
-14 -37 -14 -39 0 -3 -4 -13 -9 -21 -8 -15 -15 -14 -61 7 -51 24 -65 39 -36
39 8 0 15 5 15 10 0 6 8 10 18 10 9 1 33 9 52 20 36 20 50 24 50 15z m120 -72
c0 -7 -6 -13 -12 -14 -7 0 -24 -2 -36 -5 -13 -2 -22 -1 -20 3 2 5 10 23 18 42
l13 34 18 -24 c10 -13 19 -30 19 -36z"/>
<path d="M2995 6618 c-22 -5 -47 -11 -55 -15 -18 -8 -19 -8 -52 -17 -39 -11
-35 -26 17 -78 50 -50 114 -75 167 -64 78 15 143 94 117 142 -22 41 -92 53
-194 32z m170 -40 c14 -6 25 -14 25 -18 0 -6 -44 -30 -55 -30 -3 0 -5 14 -5
30 0 34 0 34 35 18z m-120 -43 c-1 -42 -8 -49 -32 -37 -10 6 -37 18 -60 27
-47 20 -56 33 -20 30 12 -1 33 1 46 5 58 15 67 12 66 -25z"/>
<path d="M8556 7012 c-12 -11 -5 -21 35 -50 43 -32 42 -36 -8 -47 -47 -9 -41
-26 20 -58 104 -56 132 -72 137 -77 3 -3 23 -14 45 -25 22 -11 61 -32 86 -47
54 -33 62 -34 55 -10 -3 9 -7 31 -9 47 -2 17 -9 40 -16 53 -6 12 -9 22 -6 22
11 0 -48 84 -79 112 -36 34 -96 63 -146 73 -56 10 -108 13 -114 7z"/>
<path d="M7668 6754 c-18 -6 -37 -12 -43 -14 -20 -5 -61 -21 -83 -32 -27 -14
-24 -26 21 -84 50 -66 119 -89 176 -60 26 14 90 86 75 86 -3 0 -2 6 3 13 5 6
9 21 8 32 -5 67 -67 90 -157 59z m130 -36 c9 -8 4 -20 -23 -54 -19 -23 -35
-47 -35 -52 0 -5 -7 -16 -16 -23 -14 -12 -16 -7 -12 52 3 36 8 70 11 76 8 13
58 14 75 1z m-173 -25 c-2 -10 -4 -31 -4 -48 l-1 -30 -20 30 c-25 37 -25 38 3
51 12 7 23 12 24 13 1 0 0 -7 -2 -16z"/>
<path d="M7875 6730 c-24 -46 -28 -79 -13 -114 16 -39 27 -50 76 -76 128 -67
302 -29 327 72 7 26 4 27 -67 49 -40 13 -75 23 -78 23 -3 1 -18 6 -35 13 -16
6 -59 20 -95 32 -36 11 -73 23 -82 26 -12 5 -21 -2 -33 -25z m97 -34 c10 -7
16 -15 14 -17 -3 -2 -6 -23 -9 -47 -2 -23 -7 -45 -10 -48 -6 -6 -57 24 -58 35
0 3 -2 14 -4 25 -10 51 29 81 67 52z m128 -41 c40 -8 130 -37 130 -41 0 -9
-55 -60 -75 -71 -29 -14 -115 -9 -125 8 -5 7 -6 18 -2 24 4 5 7 15 8 20 0 6 4
25 9 43 6 25 12 32 24 27 9 -4 23 -8 31 -10z"/>
<path d="M9037 6583 c-2 -4 -3 -21 -2 -38 4 -66 31 -127 84 -187 25 -27 39
-53 37 -64 -2 -11 -5 -23 -6 -29 -6 -27 1 -34 23 -26 25 10 85 -10 99 -32 8
-13 20 -4 26 21 2 9 5 46 5 82 2 77 -24 141 -74 190 -49 48 -180 104 -192 83z"/>
<path d="M5937 6734 c-3 -3 -149 -16 -175 -15 -13 1 -20 -4 -17 -9 3 -6 3 -10
-2 -10 -4 0 -9 -18 -11 -41 -1 -22 -3 -44 -3 -47 -6 -39 5 -76 29 -103 24 -27
34 -31 80 -32 90 -1 258 98 299 176 15 30 15 31 -11 54 -15 13 -32 23 -39 24
-28 3 -148 5 -150 3z m165 -66 c-2 -8 -72 -72 -103 -96 -19 -15 -21 3 -7 64
l10 41 51 -1 c29 -1 51 -4 49 -8z m-243 -85 c38 -38 41 -44 25 -50 -11 -4 -25
-13 -32 -20 -18 -18 -37 -6 -40 25 -1 15 -5 38 -8 52 -3 14 -7 36 -9 50 -4 24
-4 24 8 5 6 -11 32 -39 56 -62z"/>
<path d="M5487 6704 c-1 -1 -27 -4 -57 -8 -100 -10 -166 -29 -258 -74 -67 -33
-89 -55 -35 -37 21 7 52 16 69 19 l31 7 -1 -51 c0 -27 -2 -50 -5 -50 -10 0
-75 25 -88 33 -27 17 -20 -12 10 -41 63 -61 152 -74 233 -36 32 15 244 213
244 228 0 3 -8 6 -17 6 -9 0 -47 -31 -85 -70 -38 -38 -71 -70 -73 -70 -3 0 -5
27 -5 59 l0 59 60 7 c33 4 60 10 60 14 0 5 -77 10 -83 5z"/>
<path d="M5500 6487 c-14 -7 -44 -25 -67 -40 -24 -15 -47 -27 -53 -27 -5 0
-10 -4 -10 -10 0 -5 -5 -10 -11 -10 -11 0 -39 -25 -39 -35 0 -16 121 37 157
69 21 18 58 66 51 66 -2 0 -14 -6 -28 -13z"/>
<path d="M5475 4615 c-142 -61 -145 -274 -5 -332 34 -13 103 -10 137 8 31 16
75 64 81 88 12 50 5 138 -13 168 -41 69 -129 99 -200 68z"/>
<path d="M8203 4781 c-44 -15 -102 -62 -103 -83 0 -4 -5 -19 -12 -35 -20 -49
-18 -142 6 -205 39 -105 111 -159 206 -154 52 3 128 32 155 60 87 90 81 230
-15 339 -70 79 -154 106 -237 78z"/>
<path d="M1465 4883 c-151 -65 -228 -253 -131 -323 46 -34 122 -44 196 -28 37
8 108 53 142 90 91 96 95 197 11 249 -46 29 -164 35 -218 12z"/>
</g>
</svg>
